<svg width="920" height="311" fill="none" xmlns="http://www.w3.org/2000/svg"><rect x="37.596" y="165.988" width="869.533" height="70.367" rx="10.052" fill="#fff" fill-opacity=".56"/><path fill-rule="evenodd" clip-rule="evenodd" d="M77.932 222.376c-1.71 0-3.11-1.539-3.11-3.42v-35.568c0-1.882 1.4-3.421 3.11-3.421h17.224c1.196 0 1.196 0 2.392 1.248l7.177 7.484c1.196 1.247 1.196 1.827 1.196 2.75v27.507c0 1.881-1.399 3.42-3.11 3.42h-24.88Z" fill="#7A8EF5" fill-opacity=".2"/><path d="M82.647 207.443v2.708h-1.845v-7.981h3.054c.585 0 1.102.113 1.55.34.453.222.801.542 1.047.959.248.413.373.882.373 1.408 0 .779-.268 1.402-.804 1.87-.533.464-1.266.696-2.198.696h-1.177Zm0-1.486h1.209c.357 0 .629-.093.815-.279.189-.187.283-.45.283-.79 0-.372-.096-.67-.289-.893-.192-.223-.455-.336-.788-.34h-1.23v2.302ZM87.814 210.151v-7.981h2.465c.677 0 1.285.16 1.824.482.54.318.96.769 1.262 1.354.305.581.459 1.233.462 1.957v.367c0 .731-.148 1.387-.446 1.968a3.328 3.328 0 0 1-1.251 1.359 3.442 3.442 0 0 1-1.798.494h-2.518Zm1.845-6.496v5.016h.641c.53 0 .936-.196 1.22-.587.284-.395.426-.979.426-1.754v-.345c0-.771-.142-1.352-.426-1.743-.284-.391-.697-.587-1.24-.587h-.62ZM99.594 206.971h-2.975v3.18h-1.845v-7.981h5.12v1.485h-3.275v1.836h2.975v1.48Z" fill="#546DD4"/><path opacity=".3" fill-rule="evenodd" clip-rule="evenodd" d="M95.156 179.967h1.196l9.569 9.979v1.247H95.156v-11.226Z" fill="#4763D1"/><path d="M133.31 206.295c-.809 0-1.536-.141-2.181-.422-.633-.294-1.132-.692-1.495-1.197a3.097 3.097 0 0 1-.563-1.776h1.706c.059.574.293 1.061.704 1.46.422.387 1.032.58 1.829.58.763 0 1.361-.187 1.795-.563.445-.387.668-.879.668-1.477 0-.469-.129-.851-.387-1.144a2.467 2.467 0 0 0-.967-.668 14.982 14.982 0 0 0-1.566-.493c-.809-.211-1.46-.422-1.953-.633a3.247 3.247 0 0 1-1.249-.985c-.34-.458-.51-1.067-.51-1.83 0-.668.17-1.261.51-1.777.34-.516.815-.914 1.425-1.196.622-.281 1.331-.422 2.129-.422 1.149 0 2.087.287 2.814.862.739.575 1.156 1.337 1.249 2.287h-1.759c-.058-.469-.305-.88-.739-1.231-.434-.364-1.008-.546-1.724-.546-.668 0-1.213.176-1.636.528-.422.34-.633.821-.633 1.442 0 .446.123.81.37 1.091.258.282.568.499.932.651.375.141.897.305 1.566.493.809.222 1.46.445 1.952.668.493.211.915.545 1.267 1.003.352.445.528 1.055.528 1.829 0 .598-.159 1.161-.475 1.689-.317.528-.786.956-1.408 1.284-.621.329-1.354.493-2.199.493Zm10.642.035c-.903 0-1.724-.205-2.463-.616a4.474 4.474 0 0 1-1.724-1.741c-.411-.763-.616-1.642-.616-2.639 0-.985.211-1.853.634-2.604a4.402 4.402 0 0 1 1.759-1.741c.739-.411 1.565-.616 2.48-.616s1.742.205 2.481.616a4.324 4.324 0 0 1 1.741 1.724c.434.75.651 1.624.651 2.621 0 .997-.223 1.876-.668 2.639a4.533 4.533 0 0 1-1.777 1.741c-.751.411-1.583.616-2.498.616Zm0-1.407c.574 0 1.114-.135 1.618-.405s.909-.674 1.214-1.214c.317-.539.475-1.196.475-1.97s-.152-1.431-.457-1.97c-.305-.54-.704-.938-1.197-1.196a3.274 3.274 0 0 0-1.6-.405c-.587 0-1.126.135-1.619.405-.481.258-.868.656-1.161 1.196-.293.539-.44 1.196-.44 1.97 0 .786.141 1.448.422 1.988.294.539.681.944 1.162 1.214.48.258 1.008.387 1.583.387Zm15.597-8.392v9.641h-1.6v-1.425a3.17 3.17 0 0 1-1.285 1.161 3.948 3.948 0 0 1-1.794.404c-.751 0-1.425-.152-2.023-.457a3.507 3.507 0 0 1-1.425-1.407c-.34-.622-.51-1.378-.51-2.27v-5.647h1.583v5.436c0 .95.241 1.683.721 2.199.481.505 1.138.757 1.971.757.856 0 1.53-.264 2.023-.792.492-.528.739-1.296.739-2.304v-5.296h1.6Zm4.304 1.566c.282-.551.68-.979 1.196-1.284.528-.305 1.167-.457 1.918-.457v1.653h-.422c-1.795 0-2.692.974-2.692 2.92v5.243h-1.601v-9.641h1.601v1.566Zm4.364 3.237c0-.997.199-1.865.598-2.604.399-.75.95-1.331 1.654-1.741.715-.411 1.53-.616 2.445-.616 1.184 0 2.158.288 2.92.862.774.575 1.284 1.372 1.53 2.393h-1.724a2.457 2.457 0 0 0-.967-1.39c-.469-.34-1.056-.51-1.759-.51-.915 0-1.654.316-2.217.95-.563.621-.844 1.507-.844 2.656 0 1.161.281 2.058.844 2.692.563.633 1.302.95 2.217.95.703 0 1.29-.165 1.759-.493.469-.328.792-.798.967-1.407h1.724c-.258.985-.774 1.776-1.548 2.374-.774.587-1.741.88-2.902.88-.915 0-1.73-.205-2.445-.616a4.307 4.307 0 0 1-1.654-1.741c-.399-.751-.598-1.63-.598-2.639Zm20.079-.352c0 .305-.017.628-.052.968h-7.706c.059.95.382 1.694.968 2.234.598.528 1.319.792 2.164.792.692 0 1.266-.159 1.724-.475.469-.329.797-.763.985-1.302h1.724a4.186 4.186 0 0 1-1.548 2.269c-.774.575-1.736.862-2.885.862-.915 0-1.736-.205-2.463-.616a4.39 4.39 0 0 1-1.689-1.741c-.41-.763-.616-1.642-.616-2.639 0-.997.2-1.871.598-2.621a4.156 4.156 0 0 1 1.672-1.724c.727-.411 1.559-.616 2.498-.616.914 0 1.724.2 2.427.598.704.399 1.244.95 1.619 1.654.387.692.58 1.478.58 2.357Zm-1.653-.334c0-.61-.135-1.132-.405-1.566a2.545 2.545 0 0 0-1.108-1.002 3.303 3.303 0 0 0-1.531-.352c-.809 0-1.501.258-2.075.774-.563.516-.886 1.231-.968 2.146h6.087Zm13.618 6.192v1.478h-9.359v-1.478h9.359Zm2.593-1.952c1.489-1.197 2.656-2.176 3.501-2.938a14.385 14.385 0 0 0 2.128-2.41c.586-.845.88-1.672.88-2.481 0-.762-.188-1.36-.563-1.794-.364-.446-.956-.669-1.777-.669-.798 0-1.419.253-1.865.757-.434.492-.668 1.155-.703 1.988h-1.548c.046-1.314.445-2.328 1.196-3.044.75-.715 1.718-1.073 2.902-1.073 1.208 0 2.164.334 2.868 1.003.715.668 1.073 1.589 1.073 2.762 0 .973-.293 1.923-.88 2.85a12.492 12.492 0 0 1-1.97 2.427 51.559 51.559 0 0 1-2.832 2.428h6.051v1.337h-8.461v-1.143Zm11.086 1.389c-.305 0-.563-.105-.774-.316a1.053 1.053 0 0 1-.317-.774c0-.305.106-.563.317-.774a1.05 1.05 0 0 1 .774-.317c.293 0 .539.105.739.317.211.211.316.469.316.774 0 .305-.105.563-.316.774a.977.977 0 0 1-.739.316Zm4.784-7.969c.317-.551.786-1.008 1.408-1.372.633-.375 1.366-.563 2.199-.563.856 0 1.63.205 2.322.616.703.41 1.254.991 1.653 1.741.399.739.598 1.601.598 2.586 0 .974-.199 1.842-.598 2.604a4.408 4.408 0 0 1-3.975 2.41c-.821 0-1.549-.182-2.182-.545-.621-.376-1.096-.839-1.425-1.39v6.351h-1.601v-14.215h1.601v1.777Zm6.544 3.008c0-.727-.146-1.36-.439-1.899a3.032 3.032 0 0 0-1.197-1.232 3.242 3.242 0 0 0-1.636-.422c-.586 0-1.131.147-1.636.44-.492.281-.891.698-1.196 1.249-.293.539-.44 1.167-.44 1.882 0 .727.147 1.366.44 1.918a3.33 3.33 0 0 0 1.196 1.249 3.31 3.31 0 0 0 1.636.422c.598 0 1.144-.141 1.636-.422a3.16 3.16 0 0 0 1.197-1.249c.293-.552.439-1.197.439-1.936Zm3.145 0c0-.985.2-1.847.599-2.586a4.338 4.338 0 0 1 1.636-1.741c.703-.411 1.489-.616 2.357-.616a4.3 4.3 0 0 1 2.093.528c.645.34 1.138.792 1.478 1.354v-5.101h1.618v13.018h-1.618v-1.812c-.317.574-.786 1.049-1.407 1.425-.622.363-1.349.545-2.182.545a4.459 4.459 0 0 1-2.339-.633c-.692-.422-1.238-1.015-1.636-1.777-.399-.762-.599-1.63-.599-2.604Zm8.163.018c0-.727-.147-1.36-.44-1.9a3.027 3.027 0 0 0-1.196-1.231 3.142 3.142 0 0 0-1.636-.44c-.598 0-1.144.141-1.636.422a3.061 3.061 0 0 0-1.179 1.232c-.293.539-.44 1.172-.44 1.899 0 .739.147 1.384.44 1.936.293.539.686.955 1.179 1.249a3.242 3.242 0 0 0 1.636.422c.598 0 1.143-.141 1.636-.422.504-.294.903-.71 1.196-1.249.293-.552.44-1.191.44-1.918Zm8.247-3.483H242.8v8.321h-1.601v-8.321h-1.249v-1.32h1.249v-.686c0-1.079.275-1.864.827-2.357.562-.504 1.46-.756 2.691-.756v1.337c-.704 0-1.202.14-1.495.422-.282.27-.422.721-.422 1.354v.686h2.023v1.32Z" fill="#42445A"/><path d="M757.809 201.172a1.466 1.466 0 1 1-2.931 0 1.466 1.466 0 0 1 2.931 0Z" fill="#747477" stroke="#747477" stroke-width="1.257" stroke-linecap="round" stroke-linejoin="round"/><path d="M765.767 201.172c-1.977 3.132-5.53 6.283-9.424 6.283-3.893 0-7.446-3.151-9.424-6.283 2.407-2.976 5.227-6.283 9.424-6.283 4.198 0 7.018 3.307 9.424 6.283ZM805.349 209.549h12.565M811.632 192.795v12.565m0 0 3.665-3.665m-3.665 3.665-3.665-3.665M866.92 200.648v5.236M866.92 196.47l.01-.011M866.92 211.643c5.783 0 10.471-4.688 10.471-10.471s-4.688-10.471-10.471-10.471-10.471 4.688-10.471 10.471 4.688 10.471 10.471 10.471Z" stroke="#747477" stroke-width="1.885" stroke-linecap="round" stroke-linejoin="round"/><rect x="37.596" y="91.344" width="869.533" height="70.367" rx="10.052" fill="#fff" fill-opacity=".56"/><path fill-rule="evenodd" clip-rule="evenodd" d="M77.931 147.732c-1.71 0-3.11-1.539-3.11-3.42v-35.569c0-1.881 1.4-3.42 3.11-3.42h17.225c1.196 0 1.196 0 2.392 1.248l7.177 7.483c1.196 1.248 1.196 1.828 1.196 2.751v27.507c0 1.881-1.399 3.42-3.11 3.42h-24.88Z" fill="#7A8EF5" fill-opacity=".2"/><path d="M82.647 132.799v2.707h-1.845v-7.981h3.054c.585 0 1.102.114 1.55.34.453.223.801.543 1.047.96.248.412.373.882.373 1.408 0 .779-.268 1.402-.804 1.869-.533.464-1.266.697-2.198.697h-1.177Zm0-1.486h1.209c.357 0 .629-.093.815-.279.189-.187.283-.45.283-.79 0-.373-.096-.67-.289-.893-.192-.223-.455-.336-.788-.34h-1.23v2.302ZM87.814 135.506v-7.981h2.465c.677 0 1.285.161 1.824.483.54.318.96.769 1.262 1.354.305.581.459 1.233.462 1.957v.367c0 .731-.148 1.387-.446 1.968a3.33 3.33 0 0 1-1.252 1.359 3.432 3.432 0 0 1-1.797.493h-2.518Zm1.845-6.495v5.015h.641c.53 0 .936-.195 1.22-.586.284-.395.426-.98.426-1.754v-.346c0-.771-.142-1.352-.426-1.743-.284-.391-.698-.586-1.24-.586h-.621ZM99.594 132.327h-2.975v3.179h-1.845v-7.981h5.12v1.486h-3.275v1.836h2.975v1.48Z" fill="#546DD4"/><path opacity=".3" fill-rule="evenodd" clip-rule="evenodd" d="M95.156 105.323h1.196l9.569 9.979v1.247H95.156v-11.226Z" fill="#4763D1"/><path d="M133.31 131.651c-.809 0-1.536-.141-2.181-.422-.633-.294-1.132-.692-1.495-1.197a3.097 3.097 0 0 1-.563-1.776h1.706c.059.574.293 1.061.704 1.46.422.387 1.032.58 1.829.58.763 0 1.361-.187 1.795-.563.445-.387.668-.879.668-1.477 0-.47-.129-.851-.387-1.144a2.467 2.467 0 0 0-.967-.668 15.06 15.06 0 0 0-1.566-.493c-.809-.211-1.46-.422-1.953-.633a3.247 3.247 0 0 1-1.249-.985c-.34-.458-.51-1.068-.51-1.83 0-.668.17-1.261.51-1.777.34-.516.815-.914 1.425-1.196.622-.281 1.331-.422 2.129-.422 1.149 0 2.087.287 2.814.862.739.574 1.156 1.337 1.249 2.287h-1.759c-.058-.469-.305-.88-.739-1.232-.434-.363-1.008-.545-1.724-.545-.668 0-1.213.176-1.636.528-.422.34-.633.821-.633 1.442 0 .446.123.809.369 1.091.258.281.569.498.933.651.375.141.897.305 1.565.492.81.223 1.461.446 1.953.669.493.211.915.545 1.267 1.003.352.445.528 1.055.528 1.829 0 .598-.159 1.161-.475 1.689-.317.528-.786.956-1.408 1.284-.621.329-1.354.493-2.199.493Zm10.642.035c-.903 0-1.724-.205-2.463-.616a4.474 4.474 0 0 1-1.724-1.741c-.411-.763-.616-1.642-.616-2.639 0-.985.211-1.853.633-2.604a4.405 4.405 0 0 1 1.76-1.741c.738-.411 1.565-.616 2.48-.616s1.742.205 2.48.616c.739.398 1.32.973 1.742 1.724.434.75.651 1.624.651 2.621 0 .997-.223 1.876-.669 2.639a4.524 4.524 0 0 1-1.776 1.741c-.751.411-1.584.616-2.498.616Zm0-1.407c.574 0 1.114-.135 1.618-.405s.909-.674 1.214-1.214c.317-.539.475-1.196.475-1.97s-.153-1.431-.457-1.97c-.305-.54-.704-.939-1.197-1.197a3.285 3.285 0 0 0-1.601-.404c-.586 0-1.125.135-1.618.404-.481.258-.868.657-1.161 1.197-.293.539-.44 1.196-.44 1.97 0 .786.141 1.448.422 1.988.294.539.681.944 1.161 1.214a3.298 3.298 0 0 0 1.584.387Zm15.597-8.392v9.641h-1.6v-1.425a3.17 3.17 0 0 1-1.285 1.161 3.961 3.961 0 0 1-1.794.404c-.751 0-1.425-.152-2.023-.457a3.507 3.507 0 0 1-1.425-1.407c-.34-.622-.51-1.378-.51-2.27v-5.647h1.583v5.436c0 .95.241 1.683.721 2.199.481.504 1.138.757 1.971.757.856 0 1.53-.264 2.023-.792.492-.528.739-1.296.739-2.305v-5.295h1.6Zm4.304 1.566c.282-.551.68-.979 1.196-1.284.528-.305 1.167-.458 1.918-.458v1.654h-.422c-1.795 0-2.692.973-2.692 2.92v5.243h-1.601v-9.641h1.601v1.566Zm4.364 3.237c0-.997.199-1.865.598-2.604.399-.75.95-1.331 1.653-1.741.716-.411 1.531-.616 2.446-.616 1.184 0 2.158.287 2.92.862.774.575 1.284 1.372 1.53 2.392h-1.724a2.458 2.458 0 0 0-.967-1.389c-.469-.34-1.056-.51-1.759-.51-.915 0-1.654.316-2.217.95-.563.621-.844 1.507-.844 2.656 0 1.161.281 2.058.844 2.691.563.634 1.302.95 2.217.95.703 0 1.29-.164 1.759-.492.469-.329.791-.798.967-1.408h1.724c-.258.986-.774 1.777-1.548 2.375-.774.587-1.741.88-2.902.88-.915 0-1.73-.205-2.446-.616a4.311 4.311 0 0 1-1.653-1.741c-.399-.751-.598-1.631-.598-2.639Zm20.079-.352c0 .305-.017.627-.053.968h-7.705c.059.95.381 1.694.968 2.234.598.527 1.319.791 2.164.791.692 0 1.266-.158 1.724-.475.469-.328.797-.762.985-1.301h1.724a4.186 4.186 0 0 1-1.548 2.269c-.774.575-1.736.862-2.885.862-.915 0-1.736-.205-2.463-.616a4.383 4.383 0 0 1-1.689-1.741c-.41-.763-.616-1.642-.616-2.639 0-.997.2-1.871.598-2.621a4.15 4.15 0 0 1 1.672-1.724c.727-.411 1.559-.616 2.498-.616.914 0 1.724.199 2.427.598.704.399 1.243.95 1.619 1.654.387.692.58 1.477.58 2.357Zm-1.653-.334c0-.61-.135-1.132-.405-1.566a2.547 2.547 0 0 0-1.108-1.003 3.315 3.315 0 0 0-1.531-.351c-.809 0-1.501.258-2.076.774-.562.516-.885 1.231-.967 2.146h6.087Zm13.618 6.192v1.478h-9.359v-1.478h9.359Zm2.364-11.927v-1.46h3.307v12.719h-1.618v-11.259h-1.689Zm6.831 11.364a1.05 1.05 0 0 1-.774-.317 1.053 1.053 0 0 1-.317-.774c0-.304.106-.562.317-.774.211-.211.469-.316.774-.316.293 0 .54.105.739.316.211.212.317.47.317.774 0 .305-.106.563-.317.774a.973.973 0 0 1-.739.317Zm4.784-7.969c.317-.551.786-1.008 1.408-1.372.633-.375 1.366-.563 2.199-.563.856 0 1.63.205 2.322.616.703.41 1.255.991 1.653 1.741.399.739.598 1.601.598 2.586 0 .974-.199 1.842-.598 2.604a4.407 4.407 0 0 1-3.975 2.41c-.821 0-1.548-.182-2.182-.545-.621-.376-1.096-.839-1.425-1.39v6.35h-1.601v-14.214h1.601v1.777Zm6.544 3.008c0-.727-.146-1.36-.439-1.9a3.029 3.029 0 0 0-1.197-1.231 3.23 3.23 0 0 0-1.636-.422c-.586 0-1.131.146-1.636.44-.492.281-.891.697-1.196 1.249-.293.539-.44 1.166-.44 1.882 0 .727.147 1.366.44 1.917.305.54.704.956 1.196 1.249a3.3 3.3 0 0 0 1.636.423 3.23 3.23 0 0 0 1.636-.423 3.146 3.146 0 0 0 1.197-1.249c.293-.551.439-1.196.439-1.935Zm3.146 0c0-.985.199-1.847.598-2.586a4.338 4.338 0 0 1 1.636-1.741c.703-.411 1.489-.616 2.357-.616.751 0 1.448.176 2.093.528.645.34 1.138.791 1.478 1.354v-5.101h1.619v13.018h-1.619v-1.812c-.317.574-.786 1.049-1.407 1.425-.622.363-1.349.545-2.182.545a4.459 4.459 0 0 1-2.339-.633 4.444 4.444 0 0 1-1.636-1.777c-.399-.762-.598-1.63-.598-2.604Zm8.162.018c0-.727-.147-1.361-.44-1.9a3.02 3.02 0 0 0-1.196-1.231 3.132 3.132 0 0 0-1.636-.44c-.598 0-1.143.14-1.636.422-.493.281-.885.692-1.179 1.231-.293.54-.439 1.173-.439 1.9 0 .739.146 1.384.439 1.935.294.54.686.956 1.179 1.249a3.236 3.236 0 0 0 1.636.423c.598 0 1.143-.141 1.636-.423a3.144 3.144 0 0 0 1.196-1.249c.293-.551.44-1.19.44-1.917Zm8.247-3.483h-2.023v8.321h-1.601v-8.321h-1.249v-1.32h1.249v-.686c0-1.079.275-1.864.827-2.357.563-.504 1.46-.756 2.691-.756v1.336c-.703 0-1.202.141-1.495.423-.282.269-.422.721-.422 1.354v.686h2.023v1.32Z" fill="#42445A"/><path d="M757.809 126.527a1.466 1.466 0 1 1-2.931 0 1.466 1.466 0 0 1 2.931 0Z" fill="#747477" stroke="#747477" stroke-width="1.257" stroke-linecap="round" stroke-linejoin="round"/><path d="M765.767 126.527c-1.977 3.132-5.53 6.283-9.424 6.283-3.893 0-7.446-3.151-9.424-6.283 2.407-2.975 5.227-6.282 9.424-6.282 4.197 0 7.017 3.307 9.424 6.282ZM805.349 134.904h12.565M811.632 118.15v12.566m0 0 3.664-3.665m-3.664 3.665-3.665-3.665M866.92 126.004v5.235M866.92 121.826l.01-.012M866.92 136.999c5.783 0 10.471-4.689 10.471-10.472 0-5.783-4.688-10.471-10.471-10.471s-10.471 4.688-10.471 10.471 4.688 10.472 10.471 10.472Z" stroke="#747477" stroke-width="1.885" stroke-linecap="round" stroke-linejoin="round"/><rect x="37.596" y="240.633" width="869.533" height="70.367" rx="10.052" fill="#fff" fill-opacity=".56"/><path fill-rule="evenodd" clip-rule="evenodd" d="M77.932 297.021c-1.71 0-3.11-1.539-3.11-3.42v-35.569c0-1.881 1.4-3.42 3.11-3.42h17.224c1.196 0 1.196 0 2.392 1.248l7.177 7.483c1.196 1.248 1.196 1.828 1.196 2.751v27.507c0 1.881-1.399 3.42-3.11 3.42h-24.88Z" fill="#7A8EF5" fill-opacity=".2"/><path opacity=".3" fill-rule="evenodd" clip-rule="evenodd" d="M95.156 254.612h1.196l9.569 9.979v1.247H95.156v-11.226Z" fill="#4763D1"/><path fill-rule="evenodd" clip-rule="evenodd" d="M95.082 285.795h-2.354l-1.304-5.237c-.057-.174-.142-.581-.256-1.163-.113-.582-.198-.989-.198-1.164-.028.233-.085.64-.199 1.193-.113.553-.198.931-.255 1.164l-1.304 5.207h-2.354l-2.467-9.978h2.013l1.248 5.44a36.65 36.65 0 0 1 .482 2.618c.029-.262.085-.669.17-1.193.085-.523.199-.96.256-1.251l1.418-5.585h1.956l1.418 5.585c.057.262.142.64.227 1.135.085.494.17.96.227 1.309.056-.349.113-.786.227-1.338.113-.553.198-.96.255-1.28l1.247-5.44h2.014l-2.467 9.978Z" fill="#546DD4"/><path d="M133.24 268.555c1.337 0 2.492.252 3.465.757.986.492 1.736 1.202 2.252 2.128.528.927.792 2.017.792 3.272s-.264 2.346-.792 3.272c-.516.915-1.266 1.619-2.252 2.111-.973.481-2.128.722-3.465.722h-3.817v-12.262h3.817Zm0 10.942c1.583 0 2.791-.416 3.624-1.249.832-.844 1.249-2.023 1.249-3.536 0-1.524-.422-2.715-1.267-3.571-.832-.856-2.035-1.284-3.606-1.284h-2.217v9.64h2.217Zm10.221-6.755c.282-.551.68-.979 1.196-1.284.528-.305 1.167-.458 1.918-.458v1.654h-.422c-1.795 0-2.692.973-2.692 2.92v5.243h-1.601v-9.641h1.601v1.566Zm4.364 3.219c0-.985.199-1.847.598-2.586.399-.75.944-1.331 1.636-1.741a4.556 4.556 0 0 1 2.34-.616c.844 0 1.577.182 2.199.545.621.364 1.084.821 1.389 1.372v-1.759h1.619v9.641h-1.619v-1.795c-.316.563-.791 1.032-1.425 1.408-.621.363-1.348.545-2.181.545-.856 0-1.63-.211-2.322-.633-.692-.423-1.237-1.015-1.636-1.777-.399-.763-.598-1.63-.598-2.604Zm8.162.018c0-.727-.146-1.361-.439-1.9a3.032 3.032 0 0 0-1.197-1.232 3.138 3.138 0 0 0-1.636-.439c-.598 0-1.143.14-1.636.422a3.063 3.063 0 0 0-1.178 1.231c-.294.54-.44 1.173-.44 1.9 0 .739.146 1.384.44 1.935.293.54.686.956 1.178 1.249a3.236 3.236 0 0 0 1.636.423c.598 0 1.144-.141 1.636-.423a3.146 3.146 0 0 0 1.197-1.249c.293-.551.439-1.19.439-1.917Zm8.247-3.483h-2.023v8.321h-1.601v-8.321h-1.249v-1.32h1.249v-.686c0-1.079.276-1.865.827-2.357.563-.504 1.46-.757 2.691-.757v1.337c-.703 0-1.202.141-1.495.423-.281.269-.422.721-.422 1.354v.686h2.023v1.32Zm3.819 0v5.682c0 .469.1.803.299 1.002.2.188.546.282 1.038.282h1.179v1.355h-1.443c-.891 0-1.559-.206-2.005-.616-.446-.411-.669-1.085-.669-2.023v-5.682h-1.249v-1.32h1.249v-2.427h1.601v2.427h2.516v1.32h-2.516Zm4.966 8.426a1.05 1.05 0 0 1-.774-.317 1.05 1.05 0 0 1-.317-.774c0-.305.105-.563.317-.774.211-.211.469-.316.774-.316.293 0 .539.105.738.316.212.211.317.469.317.774 0 .305-.105.563-.317.774a.97.97 0 0 1-.738.317Zm2.585-4.961c0-.985.199-1.847.598-2.586.399-.75.944-1.331 1.636-1.741.704-.411 1.489-.616 2.357-.616.751 0 1.449.176 2.094.528.645.34 1.137.791 1.477 1.354v-5.101h1.619v13.018h-1.619v-1.812c-.316.574-.785 1.049-1.407 1.425-.621.363-1.349.545-2.181.545a4.465 4.465 0 0 1-2.34-.633c-.692-.423-1.237-1.015-1.636-1.777-.399-.763-.598-1.63-.598-2.604Zm8.162.018c0-.727-.146-1.361-.439-1.9a3.032 3.032 0 0 0-1.197-1.232 3.136 3.136 0 0 0-1.636-.439c-.598 0-1.143.14-1.636.422a3.063 3.063 0 0 0-1.178 1.231c-.293.54-.44 1.173-.44 1.9 0 .739.147 1.384.44 1.935.293.54.686.956 1.178 1.249a3.236 3.236 0 0 0 1.636.423 3.23 3.23 0 0 0 1.636-.423 3.146 3.146 0 0 0 1.197-1.249c.293-.551.439-1.19.439-1.917Zm8.529 4.996c-.903 0-1.724-.205-2.463-.616a4.474 4.474 0 0 1-1.724-1.741c-.411-.763-.616-1.642-.616-2.639 0-.985.211-1.853.633-2.604a4.405 4.405 0 0 1 1.76-1.741c.738-.411 1.565-.616 2.48-.616s1.742.205 2.48.616c.739.398 1.32.973 1.742 1.724.434.75.651 1.624.651 2.621 0 .997-.223 1.876-.669 2.639a4.53 4.53 0 0 1-1.776 1.741c-.751.411-1.584.616-2.498.616Zm0-1.407c.574 0 1.114-.135 1.618-.405s.909-.674 1.214-1.214c.317-.539.475-1.196.475-1.97s-.153-1.431-.458-1.97c-.304-.54-.703-.939-1.196-1.197a3.285 3.285 0 0 0-1.601-.404c-.586 0-1.125.135-1.618.404-.481.258-.868.657-1.161 1.197-.293.539-.44 1.196-.44 1.97 0 .786.141 1.448.422 1.988.293.539.681.944 1.161 1.213a3.287 3.287 0 0 0 1.584.388Zm6.45-3.589c0-.997.199-1.865.598-2.604.398-.75.95-1.331 1.653-1.741.716-.411 1.531-.616 2.446-.616 1.184 0 2.157.287 2.92.862.774.575 1.284 1.372 1.53 2.392h-1.724a2.458 2.458 0 0 0-.967-1.389c-.469-.34-1.056-.51-1.759-.51-.915 0-1.654.316-2.217.949-.563.622-.844 1.507-.844 2.657 0 1.161.281 2.058.844 2.691.563.634 1.302.95 2.217.95.703 0 1.29-.164 1.759-.492.469-.329.791-.798.967-1.408h1.724c-.258.986-.774 1.777-1.548 2.375-.774.587-1.741.88-2.902.88-.915 0-1.73-.205-2.446-.616a4.304 4.304 0 0 1-1.653-1.741c-.399-.751-.598-1.631-.598-2.639Zm16.315 4.838-2.287-3.589-2.199 3.589h-1.672l3.114-4.785-3.114-4.856h1.812l2.287 3.571 2.182-3.571h1.671l-3.096 4.768 3.113 4.873h-1.811Z" fill="#42445A"/><path d="M757.809 275.816a1.466 1.466 0 1 1-2.931 0 1.466 1.466 0 0 1 2.931 0Z" fill="#747477" stroke="#747477" stroke-width="1.257" stroke-linecap="round" stroke-linejoin="round"/><path d="M765.767 275.816c-1.977 3.132-5.53 6.283-9.424 6.283-3.893 0-7.446-3.151-9.424-6.283 2.407-2.975 5.227-6.282 9.424-6.282 4.198 0 7.018 3.307 9.424 6.282ZM805.349 284.193h12.565M811.632 267.439v12.566m0 0 3.665-3.665m-3.665 3.665-3.665-3.665M866.92 275.293v5.235M866.92 271.115l.01-.012M866.92 286.288c5.783 0 10.471-4.689 10.471-10.472 0-5.783-4.688-10.471-10.471-10.471s-10.471 4.688-10.471 10.471 4.688 10.472 10.471 10.472Z" stroke="#747477" stroke-width="1.885" stroke-linecap="round" stroke-linejoin="round"/><g filter="url(#a)"><rect x="13" y="9" width="894.022" height="84.483" rx="12.069" fill="#fff"/><path fill-rule="evenodd" clip-rule="evenodd" d="M61.427 76.7c-2.054 0-3.734-1.848-3.734-4.107V29.89c0-2.259 1.68-4.107 3.734-4.107h20.68c1.436 0 1.436 0 2.872 1.498l8.616 8.985c1.436 1.498 1.436 2.194 1.436 3.303v33.024c0 2.259-1.68 4.106-3.734 4.106h-29.87Z" fill="#6C85F4"/><path opacity=".3" fill-rule="evenodd" clip-rule="evenodd" d="M82.106 25.783h1.437l11.488 11.98v1.498H82.106V25.783Z" fill="#42445A"/><path fill-rule="evenodd" clip-rule="evenodd" d="M82.017 63.222h-2.825l-1.567-6.287c-.068-.21-.17-.699-.306-1.397-.136-.699-.238-1.188-.238-1.397-.034.279-.102.768-.239 1.431a41.421 41.421 0 0 1-.306 1.398l-1.566 6.252h-2.826l-2.962-11.98H71.6l1.498 6.531c.273 1.222.443 2.235.58 3.143.033-.314.101-.803.203-1.431.103-.63.239-1.153.307-1.502l1.702-6.707h2.35l1.701 6.707c.069.314.17.768.273 1.362.102.593.204 1.152.272 1.572.068-.42.136-.944.273-1.607.136-.664.238-1.153.306-1.537l1.498-6.532h2.417l-2.962 11.98Z" fill="#fff"/><path d="M131.569 42.52v1.563h-6.4v4.964h5.196v1.563h-5.196v6.632h-1.922V42.52h8.322Zm3.314 1.268c-.366 0-.676-.127-.93-.38a1.266 1.266 0 0 1-.38-.93c0-.366.127-.676.38-.93.254-.253.564-.38.93-.38.352 0 .647.127.887.38.253.254.38.564.38.93 0 .366-.127.676-.38.93-.24.253-.535.38-.887.38Zm.929 1.88v11.574h-1.922V45.666h1.922Zm8.915-.212c1.408 0 2.549.43 3.422 1.288.873.845 1.309 2.07 1.309 3.675v6.823h-1.901v-6.548c0-1.155-.288-2.035-.866-2.64-.577-.62-1.366-.93-2.365-.93-1.014 0-1.824.317-2.429.951-.592.634-.887 1.556-.887 2.767v6.4h-1.922V45.666h1.922v1.648a3.83 3.83 0 0 1 1.542-1.373 4.878 4.878 0 0 1 2.175-.486Zm7.153 5.956c0-1.183.239-2.218.718-3.105.478-.9 1.133-1.598 1.964-2.09.845-.493 1.781-.74 2.809-.74 1.014 0 1.894.219 2.64.655.746.437 1.302.986 1.669 1.647v-2.112h1.943v11.575h-1.943v-2.155c-.381.676-.951 1.24-1.711 1.69-.746.436-1.619.655-2.619.655-1.028 0-1.957-.254-2.788-.76-.831-.508-1.486-1.219-1.964-2.134-.479-.915-.718-1.957-.718-3.126Zm9.8.021c0-.873-.176-1.633-.528-2.28a3.633 3.633 0 0 0-1.437-1.48 3.767 3.767 0 0 0-1.964-.527c-.718 0-1.373.169-1.964.507-.592.338-1.063.83-1.415 1.478-.352.648-.528 1.408-.528 2.281 0 .887.176 1.662.528 2.323a3.823 3.823 0 0 0 1.415 1.5 3.888 3.888 0 0 0 1.964.507c.718 0 1.373-.17 1.964-.507a3.778 3.778 0 0 0 1.437-1.5c.352-.661.528-1.429.528-2.302Zm7.113-9.82v15.629h-1.922v-15.63h1.922Zm3.888 15.755c-.366 0-.676-.127-.929-.38a1.263 1.263 0 0 1-.381-.93c0-.365.127-.675.381-.929.253-.253.563-.38.929-.38.352 0 .648.127.887.38.253.254.38.564.38.93 0 .366-.127.676-.38.929a1.17 1.17 0 0 1-.887.38Zm3.104-5.956c0-1.183.239-2.218.718-3.105.479-.9 1.133-1.598 1.964-2.09.845-.493 1.788-.74 2.83-.74a5.17 5.17 0 0 1 2.514.634c.774.408 1.365.95 1.774 1.626v-6.125h1.943v15.63h-1.943v-2.176c-.38.69-.944 1.26-1.69 1.71-.746.437-1.619.656-2.619.656a5.356 5.356 0 0 1-2.809-.76c-.831-.508-1.485-1.219-1.964-2.134-.479-.915-.718-1.957-.718-3.126Zm9.8.021c0-.873-.176-1.633-.528-2.28a3.637 3.637 0 0 0-1.436-1.48 3.773 3.773 0 0 0-1.965-.527c-.718 0-1.373.169-1.964.507-.591.338-1.063.83-1.415 1.478-.352.648-.528 1.408-.528 2.281 0 .887.176 1.662.528 2.323a3.83 3.83 0 0 0 1.415 1.5 3.888 3.888 0 0 0 1.964.507c.718 0 1.373-.17 1.965-.507a3.783 3.783 0 0 0 1.436-1.5c.352-.661.528-1.429.528-2.302Zm10.239 5.999c-1.084 0-2.07-.247-2.957-.74a5.374 5.374 0 0 1-2.07-2.09c-.493-.916-.739-1.972-.739-3.169 0-1.182.253-2.224.76-3.126.521-.915 1.225-1.612 2.112-2.09.887-.493 1.88-.74 2.978-.74 1.098 0 2.091.247 2.978.74a5.19 5.19 0 0 1 2.091 2.07c.521.9.782 1.95.782 3.146 0 1.197-.268 2.253-.803 3.168a5.438 5.438 0 0 1-2.133 2.091c-.901.493-1.901.74-2.999.74Zm0-1.69c.69 0 1.337-.162 1.943-.486.605-.324 1.091-.81 1.457-1.457.38-.648.57-1.436.57-2.366 0-.929-.183-1.718-.549-2.365-.366-.648-.845-1.127-1.436-1.436a3.937 3.937 0 0 0-1.922-.486c-.704 0-1.352.162-1.943.486-.577.31-1.042.788-1.394 1.436-.352.648-.528 1.436-.528 2.365 0 .944.169 1.74.507 2.387.352.648.817 1.133 1.394 1.457.577.31 1.211.465 1.901.465Zm7.744-4.309c0-1.197.239-2.239.718-3.126a5.165 5.165 0 0 1 1.985-2.09c.859-.493 1.838-.74 2.936-.74 1.422 0 2.591.345 3.506 1.035.929.69 1.542 1.648 1.837 2.873h-2.069a2.96 2.96 0 0 0-1.162-1.669c-.563-.408-1.267-.613-2.112-.613-1.098 0-1.986.38-2.661 1.141-.676.746-1.014 1.81-1.014 3.19 0 1.393.338 2.47 1.014 3.23.675.761 1.563 1.141 2.661 1.141.845 0 1.549-.197 2.112-.591.563-.394.95-.958 1.162-1.69h2.069c-.309 1.183-.929 2.133-1.858 2.852-.93.704-2.091 1.056-3.485 1.056-1.098 0-2.077-.247-2.936-.74a5.165 5.165 0 0 1-1.985-2.09c-.479-.902-.718-1.958-.718-3.169Zm19.587 5.809-2.745-4.31-2.64 4.31h-2.007l3.739-5.745-3.739-5.83h2.176l2.745 4.288 2.619-4.288h2.007l-3.717 5.724 3.738 5.85h-2.176Z" fill="#42445A"/><path d="M727.748 51.241a1.76 1.76 0 1 1-3.522-.001 1.76 1.76 0 0 1 3.522.001Z" fill="#747477" stroke="#747477" stroke-width="1.509" stroke-linecap="round" stroke-linejoin="round"/><path d="M737.302 51.241c-2.374 3.76-6.64 7.544-11.315 7.544-4.674 0-8.94-3.783-11.314-7.544 2.889-3.572 6.275-7.543 11.314-7.543 5.04 0 8.425 3.97 11.315 7.543ZM784.824 61.299h15.086M792.367 41.184V56.27m0 0 4.4-4.4m-4.4 4.4-4.4-4.4M858.746 50.613v6.286M858.746 45.597l.013-.014M858.747 63.813c6.943 0 12.571-5.628 12.571-12.572 0-6.943-5.628-12.572-12.571-12.572-6.944 0-12.572 5.63-12.572 12.572 0 6.944 5.628 12.572 12.572 12.572Z" stroke="#747477" stroke-width="2.263" stroke-linecap="round" stroke-linejoin="round"/><circle cx="34.121" cy="51.241" r="6.035" fill="#8C15EA"/></g><g opacity=".7" stroke="#546DD4" stroke-linecap="round" stroke-linejoin="round"><path d="M538.933 52.005a1.76 1.76 0 1 1-3.52 0 1.76 1.76 0 0 1 3.52 0Z" fill="#546DD4" stroke-width="1.509"/><path d="M548.487 52.005c-2.374 3.76-6.64 7.544-11.314 7.544-4.675 0-8.941-3.783-11.315-7.544 2.89-3.572 6.275-7.543 11.315-7.543 5.039 0 8.425 3.97 11.314 7.543Z" stroke-width="2.263"/></g><path d="M358 42.12a9.052 9.052 0 1 1 0 18.105 9.052 9.052 0 0 1 0-18.104Zm0 1.51a7.543 7.543 0 1 0 0 15.085 7.543 7.543 0 0 0 0-15.085Zm-.752 3.017c.37 0 .678.267.742.619l.012.135v3.772h2.261a.754.754 0 0 1 .136 1.496l-.136.012h-3.015a.755.755 0 0 1-.742-.618l-.012-.136v-4.526c0-.417.337-.754.754-.754ZM387.487 56.742h-1.647l-6.626-10.048v10.048h-1.648V44.106h1.648l6.626 10.029v-10.03h1.647v12.637Zm7.135.163c-.929 0-1.774-.212-2.534-.634a4.597 4.597 0 0 1-1.774-1.792c-.423-.785-.634-1.69-.634-2.716 0-1.014.217-1.907.652-2.68a4.533 4.533 0 0 1 1.81-1.791c.76-.423 1.611-.634 2.553-.634.941 0 1.792.211 2.552.634a4.44 4.44 0 0 1 1.792 1.774c.447.772.67 1.671.67 2.697s-.229 1.931-.688 2.716a4.658 4.658 0 0 1-1.828 1.792c-.773.422-1.629.634-2.571.634Zm0-1.449c.592 0 1.147-.138 1.666-.416.519-.278.935-.694 1.249-1.25.326-.554.489-1.23.489-2.027 0-.796-.157-1.472-.471-2.027-.314-.555-.724-.966-1.231-1.231a3.375 3.375 0 0 0-1.647-.417c-.604 0-1.159.139-1.666.417-.495.265-.893.675-1.195 1.23-.302.556-.452 1.232-.452 2.028 0 .809.144 1.49.434 2.046.302.555.7.972 1.195 1.25a3.392 3.392 0 0 0 1.629.397Zm9.263-7.277v5.847c0 .483.102.827.308 1.032.205.193.561.29 1.068.29h1.213v1.394h-1.485c-.917 0-1.605-.211-2.064-.634-.458-.422-.688-1.116-.688-2.082V48.18h-1.285V46.82h1.285v-2.498h1.648v2.498h2.589v1.358h-2.589Zm12.923 8.726c-.76 0-1.442-.127-2.046-.38-.603-.266-1.08-.628-1.43-1.087a2.934 2.934 0 0 1-.579-1.611h1.702c.048.495.277.9.688 1.213.422.314.971.47 1.647.47.628 0 1.122-.138 1.485-.416.362-.277.543-.627.543-1.05 0-.434-.193-.754-.58-.96-.386-.216-.983-.428-1.792-.633a14.715 14.715 0 0 1-1.81-.58 3.436 3.436 0 0 1-1.195-.886c-.326-.398-.489-.917-.489-1.557 0-.507.151-.972.453-1.394.301-.422.73-.754 1.285-.996.555-.253 1.189-.38 1.901-.38 1.098 0 1.985.278 2.661.833.676.555 1.038 1.315 1.086 2.28h-1.647c-.036-.518-.247-.934-.634-1.248-.374-.314-.881-.471-1.52-.471-.592 0-1.062.127-1.412.38-.35.254-.525.585-.525.996 0 .326.102.597.307.815.218.205.483.374.797.506.326.121.772.26 1.34.417.712.193 1.291.386 1.737.58.447.18.827.458 1.141.832.326.374.495.863.507 1.466a2.51 2.51 0 0 1-.453 1.467c-.301.434-.73.778-1.285 1.032-.543.24-1.171.362-1.883.362Zm14.998-5.504c0 .314-.018.646-.054.996h-7.929c.06.977.392 1.744.995 2.299.616.543 1.358.815 2.227.815.712 0 1.303-.163 1.774-.49a2.665 2.665 0 0 0 1.014-1.339h1.774a4.303 4.303 0 0 1-1.593 2.336c-.797.59-1.786.887-2.969.887-.941 0-1.786-.212-2.534-.634a4.51 4.51 0 0 1-1.738-1.792c-.423-.785-.634-1.69-.634-2.716 0-1.026.205-1.925.615-2.697a4.284 4.284 0 0 1 1.72-1.774c.749-.423 1.605-.634 2.571-.634.941 0 1.774.205 2.498.616.724.41 1.28.977 1.666 1.701.398.712.597 1.521.597 2.426Zm-1.702-.344c0-.627-.138-1.165-.416-1.611a2.62 2.62 0 0 0-1.14-1.032 3.402 3.402 0 0 0-1.575-.362c-.833 0-1.545.266-2.137.797-.579.53-.911 1.267-.995 2.208h6.263Zm12.929.344c0 .314-.019.646-.055.996h-7.929c.06.977.392 1.744.996 2.299.615.543 1.357.815 2.226.815.712 0 1.304-.163 1.774-.49a2.665 2.665 0 0 0 1.014-1.339h1.774a4.303 4.303 0 0 1-1.593 2.336c-.796.59-1.786.887-2.969.887-.941 0-1.786-.212-2.534-.634a4.517 4.517 0 0 1-1.738-1.792c-.423-.785-.634-1.69-.634-2.716 0-1.026.205-1.925.616-2.697a4.272 4.272 0 0 1 1.72-1.774c.748-.423 1.605-.634 2.57-.634.942 0 1.774.205 2.499.616.724.41 1.279.977 1.665 1.701.398.712.598 1.521.598 2.426Zm-1.702-.344c0-.627-.139-1.165-.417-1.611a2.615 2.615 0 0 0-1.14-1.032 3.402 3.402 0 0 0-1.575-.362c-.833 0-1.545.266-2.136.797-.58.53-.912 1.267-.996 2.208h6.264Zm8.71-4.417c1.207 0 2.184.368 2.932 1.104.749.724 1.123 1.774 1.123 3.15v5.848h-1.629V51.13c0-.99-.248-1.744-.743-2.263-.495-.531-1.17-.797-2.027-.797-.869 0-1.563.272-2.082.815-.507.543-.761 1.333-.761 2.371v5.486h-1.647V46.82h1.647v1.412c.326-.507.767-.9 1.322-1.177a4.185 4.185 0 0 1 1.865-.416Zm20.117.181-5.974 14.591h-1.702l1.955-4.779-4-9.812h1.828l3.114 8.038 3.077-8.038h1.702Zm10.708 4.58c0 .314-.018.646-.054.996h-7.93c.061.977.393 1.744.996 2.299.616.543 1.358.815 2.227.815.712 0 1.303-.163 1.774-.49a2.665 2.665 0 0 0 1.014-1.339h1.774a4.314 4.314 0 0 1-1.593 2.336c-.797.59-1.786.887-2.969.887-.942 0-1.786-.212-2.535-.634a4.523 4.523 0 0 1-1.738-1.792c-.422-.785-.633-1.69-.633-2.716 0-1.026.205-1.925.615-2.697a4.284 4.284 0 0 1 1.72-1.774c.748-.423 1.605-.634 2.571-.634.941 0 1.774.205 2.498.616.724.41 1.279.977 1.666 1.701.398.712.597 1.521.597 2.426Zm-1.702-.344c0-.627-.139-1.165-.416-1.611a2.623 2.623 0 0 0-1.141-1.032 3.396 3.396 0 0 0-1.575-.362c-.832 0-1.544.266-2.136.797-.579.53-.911 1.267-.996 2.208h6.264Zm5.886-2.878v5.847c0 .483.103.827.308 1.032.205.193.561.29 1.068.29h1.213v1.394h-1.485c-.917 0-1.605-.211-2.063-.634-.459-.422-.688-1.116-.688-2.082V48.18h-1.286V46.82h1.286v-2.498h1.647v2.498h2.589v1.358h-2.589Z" fill="#F58D0A"/><g opacity=".7" stroke="#546DD4" stroke-width="2.263" stroke-linecap="round" stroke-linejoin="round"><path d="M589.629 62.23h15.087M597.172 42.115v15.086m0 0 4.401-4.4m-4.401 4.4-4.4-4.4"/></g><defs><filter id="a" x=".167" y=".445" width="919.688" height="110.149" filterUnits="userSpaceOnUse" color-interpolation-filters="sRGB"><feFlood flood-opacity="0" result="BackgroundImageFix"/><feColorMatrix in="SourceAlpha" values="0 0 0 0 0 0 0 0 0 0 0 0 0 0 0 0 0 0 127 0" result="hardAlpha"/><feOffset dy="4.278"/><feGaussianBlur stdDeviation="6.416"/><feComposite in2="hardAlpha" operator="out"/><feColorMatrix values="0 0 0 0 0.0705882 0 0 0 0 0.0705882 0 0 0 0 0.0705882 0 0 0 0.12 0"/><feBlend in2="BackgroundImageFix" result="effect1_dropShadow_4730_3726"/><feBlend in="SourceGraphic" in2="effect1_dropShadow_4730_3726" result="shape"/></filter></defs></svg>