<svg width="892" height="331" fill="none" xmlns="http://www.w3.org/2000/svg"><path d="M37 12c0-6.627 5.373-12 12-12h776c6.627 0 12 5.373 12 12v30c0 6.627-5.373 12-12 12H49c-6.627 0-12-5.373-12-12V12Z" fill="#fff" fill-opacity=".56"/><path d="M67.846 29.83H63.59L62.806 32h-1.344l3.528-9.702h1.47L69.974 32H68.63l-.784-2.17Zm-.364-1.036-1.764-4.928-1.764 4.928h3.528Zm6.746 3.332c-.588 0-1.116-.098-1.582-.294-.467-.205-.836-.485-1.106-.84a2.27 2.27 0 0 1-.448-1.246h1.316c.037.383.214.695.532.938.326.243.75.364 1.274.364.485 0 .868-.107 1.148-.322.28-.215.42-.485.42-.812a.786.786 0 0 0-.448-.742c-.3-.168-.761-.331-1.386-.49-.57-.15-1.036-.299-1.4-.448a2.658 2.658 0 0 1-.924-.686c-.252-.308-.378-.71-.378-1.204 0-.392.116-.751.35-1.078.233-.327.564-.583.994-.77.429-.196.919-.294 1.47-.294.849 0 1.535.215 2.058.644.522.43.802 1.017.84 1.764h-1.274a1.307 1.307 0 0 0-.49-.966c-.29-.243-.682-.364-1.176-.364-.458 0-.822.098-1.092.294-.271.196-.406.453-.406.77 0 .252.079.462.238.63.168.159.373.29.616.392.252.093.597.2 1.036.322.55.15.998.299 1.344.448.345.14.639.355.882.644.252.29.382.667.392 1.134 0 .42-.117.798-.35 1.134-.234.336-.565.602-.994.798-.42.187-.906.28-1.456.28Zm7.314 0c-.588 0-1.115-.098-1.582-.294-.467-.205-.835-.485-1.106-.84a2.27 2.27 0 0 1-.448-1.246h1.316c.037.383.215.695.532.938.327.243.751.364 1.274.364.485 0 .868-.107 1.148-.322.28-.215.42-.485.42-.812a.786.786 0 0 0-.448-.742c-.299-.168-.76-.331-1.386-.49-.57-.15-1.036-.299-1.4-.448a2.66 2.66 0 0 1-.924-.686c-.252-.308-.378-.71-.378-1.204 0-.392.117-.751.35-1.078.233-.327.565-.583.994-.77.43-.196.92-.294 1.47-.294.85 0 1.535.215 2.058.644.523.43.803 1.017.84 1.764h-1.274a1.307 1.307 0 0 0-.49-.966c-.29-.243-.681-.364-1.176-.364-.457 0-.821.098-1.092.294-.27.196-.406.453-.406.77 0 .252.08.462.238.63.168.159.373.29.616.392.252.093.597.2 1.036.322.55.15.999.299 1.344.448.345.14.64.355.882.644.252.29.383.667.392 1.134 0 .42-.117.798-.35 1.134-.233.336-.565.602-.994.798-.42.187-.905.28-1.456.28Zm5.257-9.044a.838.838 0 0 1-.617-.252.838.838 0 0 1-.252-.616c0-.243.084-.448.252-.616a.838.838 0 0 1 .617-.252c.233 0 .429.084.587.252a.838.838 0 0 1 .252.616.838.838 0 0 1-.252.616.777.777 0 0 1-.587.252Zm.615 1.246V32h-1.273v-7.672h1.273Zm5.336-.126c.662 0 1.241.145 1.736.434.504.29.877.653 1.12 1.092v-1.4h1.288v7.84c0 .7-.15 1.32-.448 1.862a3.17 3.17 0 0 1-1.288 1.288c-.55.308-1.195.462-1.932.462-1.008 0-1.848-.238-2.52-.714a2.79 2.79 0 0 1-1.19-1.946h1.26c.14.467.43.84.868 1.12.438.29.966.434 1.582.434.7 0 1.27-.22 1.708-.658.448-.439.672-1.055.672-1.848v-1.61c-.252.448-.625.821-1.12 1.12-.495.299-1.074.448-1.736.448a3.55 3.55 0 0 1-1.862-.504 3.534 3.534 0 0 1-1.302-1.414c-.317-.607-.476-1.297-.476-2.072 0-.784.159-1.47.476-2.058a3.458 3.458 0 0 1 1.302-1.386c.56-.327 1.18-.49 1.862-.49Zm2.856 3.948c0-.579-.117-1.083-.35-1.512a2.41 2.41 0 0 0-.952-.98 2.498 2.498 0 0 0-1.302-.35c-.476 0-.91.112-1.302.336-.392.224-.705.55-.938.98-.234.43-.35.933-.35 1.512 0 .588.116 1.101.35 1.54.233.43.546.76.938.994.392.224.826.336 1.302.336.476 0 .91-.112 1.302-.336.401-.233.718-.565.952-.994.233-.439.35-.947.35-1.526Zm7.179-3.962c.933 0 1.689.285 2.268.854.578.56.868 1.372.868 2.436V32h-1.26v-4.34c0-.765-.192-1.349-.574-1.75-.383-.41-.906-.616-1.568-.616-.672 0-1.209.21-1.61.63-.392.42-.588 1.031-.588 1.834V32h-1.274v-7.672h1.274v1.092a2.536 2.536 0 0 1 1.022-.91 3.232 3.232 0 0 1 1.442-.322Zm14.443 0c.597 0 1.129.126 1.596.378.466.243.835.611 1.106 1.106.27.495.406 1.097.406 1.806V32h-1.26v-4.34c0-.765-.192-1.349-.574-1.75-.374-.41-.882-.616-1.526-.616-.663 0-1.19.215-1.582.644-.392.42-.588 1.031-.588 1.834V32h-1.26v-4.34c0-.765-.192-1.349-.574-1.75-.374-.41-.882-.616-1.526-.616-.663 0-1.19.215-1.582.644-.392.42-.588 1.031-.588 1.834V32h-1.274v-7.672h1.274v1.106a2.53 2.53 0 0 1 1.008-.924c.429-.215.9-.322 1.414-.322.644 0 1.213.145 1.708.434.494.29.863.714 1.106 1.274a2.512 2.512 0 0 1 1.064-1.26 3.131 3.131 0 0 1 1.652-.448Zm12.198 3.682c0 .243-.014.5-.042.77h-6.132c.046.756.303 1.349.77 1.778.476.42 1.05.63 1.722.63.55 0 1.008-.126 1.372-.378.373-.261.634-.607.784-1.036h1.372a3.336 3.336 0 0 1-1.232 1.806c-.616.457-1.382.686-2.296.686-.728 0-1.382-.163-1.96-.49a3.485 3.485 0 0 1-1.344-1.386c-.327-.607-.49-1.307-.49-2.1 0-.793.158-1.489.476-2.086a3.303 3.303 0 0 1 1.33-1.372c.578-.327 1.241-.49 1.988-.49.728 0 1.372.159 1.932.476.56.317.989.756 1.288 1.316.308.55.462 1.176.462 1.876Zm-1.316-.266c0-.485-.108-.9-.322-1.246a2.03 2.03 0 0 0-.882-.798 2.63 2.63 0 0 0-1.218-.28c-.644 0-1.195.205-1.652.616-.448.41-.705.98-.77 1.708h4.844Zm6.735-3.416c.934 0 1.69.285 2.268.854.579.56.868 1.372.868 2.436V32h-1.26v-4.34c0-.765-.191-1.349-.574-1.75-.382-.41-.905-.616-1.568-.616-.672 0-1.208.21-1.61.63-.392.42-.588 1.031-.588 1.834V32h-1.274v-7.672h1.274v1.092a2.542 2.542 0 0 1 1.022-.91c.439-.215.92-.322 1.442-.322Zm6.771 1.19V29.9c0 .373.08.64.238.798.159.15.434.224.826.224h.938V32h-1.148c-.709 0-1.241-.163-1.596-.49-.354-.327-.532-.863-.532-1.61v-4.522h-.994v-1.05h.994v-1.932h1.274v1.932h2.002v1.05h-2.002Zm8.832 0V29.9c0 .373.08.64.238.798.159.15.434.224.826.224h.938V32h-1.148c-.709 0-1.241-.163-1.596-.49-.354-.327-.532-.863-.532-1.61v-4.522h-.994v-1.05h.994v-1.932h1.274v1.932h2.002v1.05h-2.002Zm10.154-1.05-4.62 11.284h-1.316l1.512-3.696-3.094-7.588h1.414l2.408 6.216 2.38-6.216h1.316Zm2.555 1.414c.252-.439.625-.803 1.12-1.092.504-.299 1.087-.448 1.75-.448.681 0 1.297.163 1.848.49.56.327.998.789 1.316 1.386.317.588.476 1.274.476 2.058 0 .775-.159 1.465-.476 2.072a3.507 3.507 0 0 1-3.164 1.918c-.654 0-1.232-.145-1.736-.434-.495-.299-.873-.667-1.134-1.106v5.054h-1.274V24.328h1.274v1.414Zm5.208 2.394c0-.579-.117-1.083-.35-1.512a2.416 2.416 0 0 0-.952-.98 2.578 2.578 0 0 0-1.302-.336c-.467 0-.901.117-1.302.35-.392.224-.71.555-.952.994-.234.43-.35.929-.35 1.498 0 .579.116 1.087.35 1.526.242.43.56.76.952.994.401.224.835.336 1.302.336.476 0 .91-.112 1.302-.336.401-.233.718-.565.952-.994.233-.439.35-.952.35-1.54Zm9.979-.266c0 .243-.014.5-.042.77h-6.132c.046.756.303 1.349.77 1.778.476.42 1.05.63 1.722.63.55 0 1.008-.126 1.372-.378.373-.261.634-.607.784-1.036h1.372a3.336 3.336 0 0 1-1.232 1.806c-.616.457-1.382.686-2.296.686-.728 0-1.382-.163-1.96-.49a3.485 3.485 0 0 1-1.344-1.386c-.327-.607-.49-1.307-.49-2.1 0-.793.158-1.489.476-2.086a3.303 3.303 0 0 1 1.33-1.372c.578-.327 1.241-.49 1.988-.49.728 0 1.372.159 1.932.476.56.317.989.756 1.288 1.316.308.55.462 1.176.462 1.876Zm-1.316-.266c0-.485-.108-.9-.322-1.246a2.03 2.03 0 0 0-.882-.798 2.63 2.63 0 0 0-1.218-.28c-.644 0-1.195.205-1.652.616-.448.41-.705.98-.77 1.708h4.844Z" fill="#747477"/><path d="M251.352 23.278v3.262h3.556v1.05h-3.556v3.36h3.976V32h-5.25v-9.772h5.25v1.05h-3.976Zm8.62 8.848c-.588 0-1.116-.098-1.582-.294-.467-.205-.836-.485-1.106-.84a2.268 2.268 0 0 1-.448-1.246h1.316c.037.383.214.695.532.938.326.243.751.364 1.274.364.485 0 .868-.107 1.148-.322.28-.215.42-.485.42-.812a.787.787 0 0 0-.448-.742c-.299-.168-.761-.331-1.386-.49-.57-.15-1.036-.299-1.4-.448a2.652 2.652 0 0 1-.924-.686c-.252-.308-.378-.71-.378-1.204 0-.392.116-.751.35-1.078.233-.327.564-.583.994-.77.429-.196.919-.294 1.47-.294.849 0 1.535.215 2.058.644.522.43.802 1.017.84 1.764h-1.274a1.31 1.31 0 0 0-.49-.966c-.29-.243-.682-.364-1.176-.364-.458 0-.822.098-1.092.294-.271.196-.406.453-.406.77a.88.88 0 0 0 .238.63c.168.159.373.29.616.392.252.093.597.2 1.036.322.55.15.998.299 1.344.448.345.14.639.355.882.644.252.29.382.667.392 1.134 0 .42-.117.798-.35 1.134-.234.336-.565.602-.994.798-.42.187-.906.28-1.456.28Zm7.314 0a4.052 4.052 0 0 1-1.582-.294c-.466-.205-.835-.485-1.106-.84-.27-.364-.42-.78-.448-1.246h1.316c.038.383.215.695.532.938.327.243.752.364 1.274.364.486 0 .868-.107 1.148-.322.28-.215.42-.485.42-.812a.786.786 0 0 0-.448-.742c-.298-.168-.76-.331-1.386-.49a11.425 11.425 0 0 1-1.4-.448 2.67 2.67 0 0 1-.924-.686c-.252-.308-.378-.71-.378-1.204 0-.392.117-.751.35-1.078.234-.327.565-.583.994-.77.43-.196.92-.294 1.47-.294.85 0 1.536.215 2.058.644.523.43.803 1.017.84 1.764h-1.274a1.306 1.306 0 0 0-.49-.966c-.289-.243-.681-.364-1.176-.364-.457 0-.821.098-1.092.294-.27.196-.406.453-.406.77 0 .252.08.462.238.63.168.159.374.29.616.392.252.093.598.2 1.036.322.551.15.999.299 1.344.448.346.14.64.355.882.644.252.29.383.667.392 1.134 0 .42-.116.798-.35 1.134-.233.336-.564.602-.994.798-.42.187-.905.28-1.456.28Zm4.123-3.99c0-.784.158-1.47.476-2.058a3.454 3.454 0 0 1 1.302-1.386c.56-.327 1.18-.49 1.862-.49.672 0 1.255.145 1.75.434.494.29.863.653 1.106 1.092v-1.4h1.288V32h-1.288v-1.428c-.252.448-.63.821-1.134 1.12-.495.29-1.074.434-1.736.434a3.474 3.474 0 0 1-1.848-.504 3.53 3.53 0 0 1-1.302-1.414c-.318-.607-.476-1.297-.476-2.072Zm6.496.014c0-.579-.117-1.083-.35-1.512a2.416 2.416 0 0 0-.952-.98 2.498 2.498 0 0 0-1.302-.35c-.476 0-.91.112-1.302.336-.392.224-.705.55-.938.98-.234.43-.35.933-.35 1.512 0 .588.116 1.101.35 1.54.233.43.546.76.938.994.392.224.826.336 1.302.336.476 0 .91-.112 1.302-.336.401-.233.718-.565.952-.994.233-.439.35-.947.35-1.526Zm10.049-3.822-4.62 11.284h-1.316l1.512-3.696-3.094-7.588h1.414l2.408 6.216 2.38-6.216h1.316Zm8.289 10.276c-.896-.877-1.596-1.993-2.1-3.346-.495-1.353-.742-2.814-.742-4.382 0-1.605.261-3.103.784-4.494.532-1.4 1.288-2.553 2.268-3.458h1.33v.126a9.421 9.421 0 0 0-2.366 3.542 11.926 11.926 0 0 0-.784 4.284c0 1.447.247 2.828.742 4.144a10.067 10.067 0 0 0 2.198 3.458v.126h-1.33Zm2.605-6.468c0-.784.159-1.47.476-2.058a3.454 3.454 0 0 1 1.302-1.386 3.628 3.628 0 0 1 1.862-.49c.672 0 1.255.145 1.75.434.495.29.863.653 1.106 1.092v-1.4h1.288V32h-1.288v-1.428c-.252.448-.63.821-1.134 1.12-.495.29-1.073.434-1.736.434a3.48 3.48 0 0 1-1.848-.504 3.53 3.53 0 0 1-1.302-1.414c-.317-.607-.476-1.297-.476-2.072Zm6.496.014c0-.579-.117-1.083-.35-1.512a2.41 2.41 0 0 0-.952-.98 2.498 2.498 0 0 0-1.302-.35c-.476 0-.91.112-1.302.336-.392.224-.705.55-.938.98-.233.43-.35.933-.35 1.512 0 .588.117 1.101.35 1.54.233.43.546.76.938.994.392.224.826.336 1.302.336.476 0 .91-.112 1.302-.336.401-.233.719-.565.952-.994.233-.439.35-.947.35-1.526Zm7.179-3.962c.933 0 1.689.285 2.268.854.579.56.868 1.372.868 2.436V32h-1.26v-4.34c0-.765-.191-1.349-.574-1.75-.383-.41-.905-.616-1.568-.616-.672 0-1.209.21-1.61.63-.392.42-.588 1.031-.588 1.834V32h-1.274v-7.672h1.274v1.092a2.542 2.542 0 0 1 1.022-.91 3.235 3.235 0 0 1 1.442-.322Zm11.825.14-4.62 11.284h-1.316l1.512-3.696-3.094-7.588h1.414l2.408 6.216 2.38-6.216h1.316Zm6.567 1.05V29.9c0 .373.08.64.238.798.159.15.434.224.826.224h.938V32h-1.148c-.709 0-1.241-.163-1.596-.49-.354-.327-.532-.863-.532-1.61v-4.522h-.994v-1.05h.994v-1.932h1.274v1.932h2.002v1.05h-2.002Zm10.154-1.05-4.62 11.284h-1.316l1.512-3.696-3.094-7.588h1.414l2.408 6.216 2.38-6.216h1.316Zm2.554 1.414c.252-.439.626-.803 1.12-1.092.504-.299 1.088-.448 1.75-.448a3.55 3.55 0 0 1 1.848.49c.56.327.999.789 1.316 1.386.318.588.476 1.274.476 2.058 0 .775-.158 1.465-.476 2.072a3.5 3.5 0 0 1-1.316 1.414 3.474 3.474 0 0 1-1.848.504c-.653 0-1.232-.145-1.736-.434-.494-.299-.872-.667-1.134-1.106v5.054h-1.274V24.328h1.274v1.414Zm5.208 2.394c0-.579-.116-1.083-.35-1.512a2.403 2.403 0 0 0-.952-.98 2.578 2.578 0 0 0-1.302-.336c-.466 0-.9.117-1.302.35a2.512 2.512 0 0 0-.952.994c-.233.43-.35.929-.35 1.498 0 .579.117 1.087.35 1.526.243.43.56.76.952.994.402.224.836.336 1.302.336.476 0 .91-.112 1.302-.336.402-.233.719-.565.952-.994.234-.439.35-.952.35-1.54Zm9.979-.266c0 .243-.014.5-.042.77h-6.132c.047.756.304 1.349.77 1.778.476.42 1.05.63 1.722.63.551 0 1.008-.126 1.372-.378.374-.261.635-.607.784-1.036h1.372a3.33 3.33 0 0 1-1.232 1.806c-.616.457-1.381.686-2.296.686-.728 0-1.381-.163-1.96-.49a3.499 3.499 0 0 1-1.344-1.386c-.326-.607-.49-1.307-.49-2.1 0-.793.159-1.489.476-2.086a3.315 3.315 0 0 1 1.33-1.372c.579-.327 1.242-.49 1.988-.49.728 0 1.372.159 1.932.476.56.317.99.756 1.288 1.316.308.55.462 1.176.462 1.876Zm-1.316-.266c0-.485-.107-.9-.322-1.246a2.019 2.019 0 0 0-.882-.798 2.63 2.63 0 0 0-1.218-.28c-.644 0-1.194.205-1.652.616-.448.41-.704.98-.77 1.708h4.844Zm2.592 7v-.126a9.915 9.915 0 0 0 2.184-3.458c.504-1.316.756-2.697.756-4.144 0-1.484-.266-2.912-.798-4.284a9.297 9.297 0 0 0-2.352-3.542v-.126h1.33c.98.905 1.731 2.058 2.254 3.458.532 1.39.798 2.889.798 4.494 0 1.568-.252 3.029-.756 4.382-.495 1.353-1.19 2.469-2.086 3.346h-1.33Z" fill="#606062"/><path d="M795.5 34.5h15M803.185 21.857l2.357-2.357 4.125 4.125-2.357 2.357m-4.125-4.125-4.623 4.623a.998.998 0 0 0-.293.707v3.711h3.71c.265 0 .52-.105.707-.293l4.624-4.623m-4.125-4.125 4.125 4.125" stroke="#959595" stroke-width="1.5" stroke-linecap="round" stroke-linejoin="round"/><path d="M36 70c0-6.627 5.373-12 12-12h776c6.627 0 12 5.373 12 12v30c0 6.627-5.373 12-12 12H48c-6.627 0-12-5.373-12-12V70Z" fill="#fff" fill-opacity=".56"/><path d="M64.172 90.098c-.644 0-1.223-.112-1.736-.336-.504-.233-.9-.55-1.19-.952a2.472 2.472 0 0 1-.448-1.414h1.358c.047.457.233.845.56 1.162.336.308.821.462 1.456.462.607 0 1.083-.15 1.428-.448.355-.308.532-.7.532-1.176 0-.373-.103-.677-.308-.91a1.967 1.967 0 0 0-.77-.532 12.037 12.037 0 0 0-1.246-.392c-.644-.168-1.162-.336-1.554-.504a2.58 2.58 0 0 1-.994-.784c-.27-.364-.406-.85-.406-1.456 0-.532.135-1.003.406-1.414.27-.41.649-.728 1.134-.952.495-.224 1.06-.336 1.694-.336.915 0 1.661.229 2.24.686.588.457.92 1.064.994 1.82h-1.4c-.047-.373-.243-.7-.588-.98-.345-.29-.803-.434-1.372-.434-.532 0-.966.14-1.302.42-.336.27-.504.653-.504 1.148 0 .355.098.644.294.868.205.224.453.397.742.518.299.112.714.243 1.246.392.644.177 1.162.355 1.554.532a2.51 2.51 0 0 1 1.008.798c.28.355.42.84.42 1.456 0 .476-.126.924-.378 1.344-.252.42-.625.76-1.12 1.022-.495.261-1.078.392-1.75.392Zm12.123-4.228c0 .243-.014.5-.042.77H70.12c.047.756.303 1.349.77 1.778.476.42 1.05.63 1.722.63.55 0 1.008-.126 1.372-.378.373-.261.635-.607.784-1.036h1.372a3.332 3.332 0 0 1-1.232 1.806c-.616.457-1.382.686-2.296.686-.728 0-1.382-.163-1.96-.49a3.495 3.495 0 0 1-1.344-1.386c-.327-.607-.49-1.307-.49-2.1 0-.793.159-1.489.476-2.086a3.309 3.309 0 0 1 1.33-1.372c.579-.327 1.241-.49 1.988-.49.728 0 1.372.159 1.932.476.56.317.99.756 1.288 1.316.308.55.462 1.176.462 1.876Zm-1.316-.266c0-.485-.108-.9-.322-1.246a2.026 2.026 0 0 0-.882-.798 2.63 2.63 0 0 0-1.218-.28c-.644 0-1.195.205-1.652.616-.448.41-.705.98-.77 1.708h4.844Zm4.271-2.03c.224-.439.542-.78.952-1.022.42-.243.93-.364 1.526-.364v1.316h-.336c-1.428 0-2.142.775-2.142 2.324V90h-1.274v-7.672h1.274v1.246Zm6.805 5.25 2.38-6.496h1.358L86.783 90H85.3l-3.01-7.672h1.372l2.394 6.496Zm5.65-7.742a.838.838 0 0 1-.616-.252.838.838 0 0 1-.252-.616c0-.243.084-.448.252-.616a.838.838 0 0 1 .616-.252c.233 0 .43.084.588.252a.838.838 0 0 1 .252.616.838.838 0 0 1-.252.616.777.777 0 0 1-.588.252Zm.616 1.246V90h-1.274v-7.672h1.274Zm1.695 3.822c0-.793.159-1.484.476-2.072a3.428 3.428 0 0 1 1.316-1.386c.57-.327 1.218-.49 1.946-.49.943 0 1.717.229 2.324.686.616.457 1.022 1.092 1.218 1.904h-1.372a1.959 1.959 0 0 0-.77-1.106c-.373-.27-.84-.406-1.4-.406-.728 0-1.316.252-1.764.756-.448.495-.672 1.2-.672 2.114 0 .924.224 1.638.672 2.142.448.504 1.036.756 1.764.756.56 0 1.027-.13 1.4-.392.373-.261.63-.635.77-1.12h1.372c-.205.784-.616 1.414-1.232 1.89-.616.467-1.386.7-2.31.7-.728 0-1.377-.163-1.946-.49a3.428 3.428 0 0 1-1.316-1.386c-.317-.597-.476-1.297-.476-2.1Zm15.98-.28c0 .243-.014.5-.042.77h-6.132c.047.756.303 1.349.77 1.778.476.42 1.05.63 1.722.63.551 0 1.008-.126 1.372-.378.373-.261.635-.607.784-1.036h1.372a3.33 3.33 0 0 1-1.232 1.806c-.616.457-1.381.686-2.296.686-.728 0-1.381-.163-1.96-.49a3.499 3.499 0 0 1-1.344-1.386c-.327-.607-.49-1.307-.49-2.1 0-.793.159-1.489.476-2.086a3.309 3.309 0 0 1 1.33-1.372c.579-.327 1.241-.49 1.988-.49.728 0 1.372.159 1.932.476.56.317.989.756 1.288 1.316.308.55.462 1.176.462 1.876Zm-1.316-.266c0-.485-.107-.9-.322-1.246a2.03 2.03 0 0 0-.882-.798 2.63 2.63 0 0 0-1.218-.28c-.644 0-1.195.205-1.652.616-.448.41-.705.98-.77 1.708h4.844Z" fill="#747477"/><path d="M261.342 80.242 258.514 90h-1.428l-2.268-7.854L252.466 90l-1.414.014-2.73-9.772h1.358l2.128 8.274 2.352-8.274h1.428l2.24 8.246 2.142-8.246h1.372Zm2.668 3.332c.224-.439.542-.78.952-1.022.42-.243.929-.364 1.526-.364v1.316h-.336c-1.428 0-2.142.775-2.142 2.324V90h-1.274v-7.672h1.274v1.246Zm4.607-2.492a.837.837 0 0 1-.616-.252.838.838 0 0 1-.252-.616c0-.243.084-.448.252-.616a.837.837 0 0 1 .616-.252c.233 0 .429.084.588.252a.838.838 0 0 1 .252.616.838.838 0 0 1-.252.616.778.778 0 0 1-.588.252Zm.616 1.246V90h-1.274v-7.672h1.274Zm3.725 1.05V87.9c0 .373.08.64.238.798.159.15.434.224.826.224h.938V90h-1.148c-.709 0-1.241-.163-1.596-.49-.354-.327-.532-.863-.532-1.61v-4.522h-.994v-1.05h.994v-1.932h1.274v1.932h2.002v1.05h-2.002Zm4.204-2.296a.837.837 0 0 1-.616-.252.838.838 0 0 1-.252-.616c0-.243.084-.448.252-.616a.837.837 0 0 1 .616-.252c.233 0 .429.084.588.252a.838.838 0 0 1 .252.616.838.838 0 0 1-.252.616.778.778 0 0 1-.588.252Zm.616 1.246V90h-1.274v-7.672h1.274Zm5.909-.14c.933 0 1.689.285 2.268.854.579.56.868 1.372.868 2.436V90h-1.26v-4.34c0-.765-.191-1.349-.574-1.75-.383-.41-.905-.616-1.568-.616-.672 0-1.209.21-1.61.63-.392.42-.588 1.031-.588 1.834V90h-1.274v-7.672h1.274v1.092a2.542 2.542 0 0 1 1.022-.91 3.235 3.235 0 0 1 1.442-.322Zm8.381.014c.663 0 1.242.145 1.736.434.504.29.878.653 1.12 1.092v-1.4h1.288v7.84c0 .7-.149 1.32-.448 1.862-.298.55-.728.98-1.288 1.288-.55.308-1.194.462-1.932.462-1.008 0-1.848-.238-2.52-.714-.672-.476-1.068-1.125-1.19-1.946h1.26c.14.467.43.84.868 1.12.439.29.966.434 1.582.434.7 0 1.27-.22 1.708-.658.448-.439.672-1.055.672-1.848v-1.61c-.252.448-.625.821-1.12 1.12-.494.299-1.073.448-1.736.448a3.551 3.551 0 0 1-1.862-.504 3.544 3.544 0 0 1-1.302-1.414c-.317-.607-.476-1.297-.476-2.072 0-.784.159-1.47.476-2.058a3.467 3.467 0 0 1 1.302-1.386 3.628 3.628 0 0 1 1.862-.49Zm2.856 3.948c0-.579-.116-1.083-.35-1.512a2.403 2.403 0 0 0-.952-.98 2.498 2.498 0 0 0-1.302-.35c-.476 0-.91.112-1.302.336-.392.224-.704.55-.938.98-.233.43-.35.933-.35 1.512 0 .588.117 1.101.35 1.54.234.43.546.76.938.994.392.224.826.336 1.302.336.476 0 .91-.112 1.302-.336.402-.233.719-.565.952-.994.234-.439.35-.947.35-1.526Z" fill="#606062"/><path d="M794.5 91.5h15M802.185 78.857l2.357-2.357 4.125 4.125-2.357 2.357m-4.125-4.125-4.623 4.623a.998.998 0 0 0-.293.707v3.711h3.71c.265 0 .52-.105.707-.293l4.624-4.623m-4.125-4.125 4.125 4.125" stroke="#959595" stroke-width="1.5" stroke-linecap="round" stroke-linejoin="round"/><path d="M37 128c0-6.627 5.373-12 12-12h776c6.627 0 12 5.373 12 12v30c0 6.627-5.373 12-12 12H49c-6.627 0-12-5.373-12-12v-30Z" fill="#fff" fill-opacity=".56"/><path d="M67.846 145.83H63.59l-.784 2.17h-1.344l3.528-9.702h1.47L69.974 148H68.63l-.784-2.17Zm-.364-1.036-1.764-4.928-1.764 4.928h3.528Zm3.554-.644c0-.793.158-1.484.476-2.072a3.432 3.432 0 0 1 1.316-1.386c.569-.327 1.218-.49 1.946-.49.942 0 1.717.229 2.324.686.616.457 1.022 1.092 1.218 1.904h-1.372a1.959 1.959 0 0 0-.77-1.106c-.374-.271-.84-.406-1.4-.406-.728 0-1.316.252-1.764.756-.448.495-.672 1.199-.672 2.114 0 .924.224 1.638.672 2.142.448.504 1.036.756 1.764.756.56 0 1.026-.131 1.4-.392.373-.261.63-.635.77-1.12h1.372c-.206.784-.616 1.414-1.232 1.89-.616.467-1.386.7-2.31.7-.728 0-1.377-.163-1.946-.49a3.432 3.432 0 0 1-1.316-1.386c-.318-.597-.476-1.297-.476-2.1Zm8.504-.014c0-.784.158-1.47.475-2.058a3.462 3.462 0 0 1 1.302-1.386c.56-.327 1.181-.49 1.863-.49.671 0 1.255.145 1.75.434.494.289.863.653 1.105 1.092v-1.4h1.288V148h-1.287v-1.428c-.252.448-.63.821-1.135 1.12-.494.289-1.073.434-1.736.434a3.478 3.478 0 0 1-1.848-.504 3.532 3.532 0 0 1-1.301-1.414c-.318-.607-.477-1.297-.477-2.072Zm6.495.014c0-.579-.116-1.083-.35-1.512a2.412 2.412 0 0 0-.951-.98 2.5 2.5 0 0 0-1.302-.35c-.477 0-.91.112-1.303.336a2.44 2.44 0 0 0-.938.98c-.233.429-.35.933-.35 1.512 0 .588.117 1.101.35 1.54.234.429.546.761.938.994.392.224.826.336 1.302.336.477 0 .91-.112 1.303-.336.4-.233.718-.565.952-.994.233-.439.35-.947.35-1.526Zm2.965-.014c0-.784.16-1.47.476-2.058a3.463 3.463 0 0 1 1.302-1.386 3.651 3.651 0 0 1 1.876-.49c.598 0 1.153.14 1.666.42.514.271.906.63 1.176 1.078v-4.06h1.288V148h-1.288v-1.442c-.252.457-.625.835-1.12 1.134-.494.289-1.073.434-1.736.434a3.55 3.55 0 0 1-1.862-.504 3.534 3.534 0 0 1-1.302-1.414c-.317-.607-.476-1.297-.476-2.072Zm6.496.014c0-.579-.116-1.083-.35-1.512a2.411 2.411 0 0 0-.952-.98 2.5 2.5 0 0 0-1.302-.35c-.476 0-.91.112-1.302.336a2.44 2.44 0 0 0-.938.98c-.233.429-.35.933-.35 1.512 0 .588.117 1.101.35 1.54.234.429.546.761.938.994.392.224.826.336 1.302.336.476 0 .91-.112 1.302-.336.402-.233.72-.565.952-.994.234-.439.35-.947.35-1.526Zm10.441-.28c0 .243-.014.499-.042.77h-6.132c.047.756.304 1.349.77 1.778.476.42 1.05.63 1.722.63.551 0 1.008-.126 1.372-.378.374-.261.635-.607.784-1.036h1.372a3.332 3.332 0 0 1-1.232 1.806c-.616.457-1.381.686-2.296.686-.728 0-1.381-.163-1.96-.49a3.499 3.499 0 0 1-1.344-1.386c-.326-.607-.49-1.307-.49-2.1 0-.793.159-1.489.476-2.086a3.31 3.31 0 0 1 1.33-1.372c.579-.327 1.242-.49 1.988-.49.728 0 1.372.159 1.932.476.56.317.99.756 1.288 1.316.308.551.462 1.176.462 1.876Zm-1.316-.266c0-.485-.107-.901-.322-1.246a2.015 2.015 0 0 0-.882-.798 2.626 2.626 0 0 0-1.218-.28c-.644 0-1.194.205-1.652.616-.448.411-.704.98-.77 1.708h4.844Zm12.224-3.416c.597 0 1.129.126 1.596.378.467.243.835.611 1.106 1.106.271.495.406 1.097.406 1.806V148h-1.26v-4.34c0-.765-.191-1.349-.574-1.75-.373-.411-.882-.616-1.526-.616-.663 0-1.19.215-1.582.644-.392.42-.588 1.031-.588 1.834V148h-1.26v-4.34c0-.765-.191-1.349-.574-1.75-.373-.411-.882-.616-1.526-.616-.663 0-1.19.215-1.582.644-.392.42-.588 1.031-.588 1.834V148h-1.274v-7.672h1.274v1.106a2.534 2.534 0 0 1 1.008-.924 3.113 3.113 0 0 1 1.414-.322c.644 0 1.213.145 1.708.434.495.289.863.714 1.106 1.274a2.52 2.52 0 0 1 1.064-1.26 3.131 3.131 0 0 1 1.652-.448Zm5.856-1.106a.837.837 0 0 1-.616-.252.837.837 0 0 1-.252-.616c0-.243.084-.448.252-.616a.837.837 0 0 1 .616-.252c.233 0 .429.084.588.252a.837.837 0 0 1 .252.616.837.837 0 0 1-.252.616.778.778 0 0 1-.588.252Zm.616 1.246V148h-1.274v-7.672h1.274Zm1.695 3.822c0-.793.159-1.484.476-2.072a3.43 3.43 0 0 1 1.316-1.386c.569-.327 1.218-.49 1.946-.49.943 0 1.717.229 2.324.686.616.457 1.022 1.092 1.218 1.904h-1.372a1.959 1.959 0 0 0-.77-1.106c-.373-.271-.84-.406-1.4-.406-.728 0-1.316.252-1.764.756-.448.495-.672 1.199-.672 2.114 0 .924.224 1.638.672 2.142.448.504 1.036.756 1.764.756.56 0 1.027-.131 1.4-.392s.63-.635.77-1.12h1.372c-.205.784-.616 1.414-1.232 1.89-.616.467-1.386.7-2.31.7-.728 0-1.377-.163-1.946-.49a3.43 3.43 0 0 1-1.316-1.386c-.317-.597-.476-1.297-.476-2.1Zm13.986-6.51V148h-1.274v-10.36h1.274Zm9.172 6.23c0 .243-.014.499-.042.77h-6.132c.046.756.303 1.349.77 1.778.476.42 1.05.63 1.722.63.55 0 1.008-.126 1.372-.378.373-.261.634-.607.784-1.036h1.372a3.338 3.338 0 0 1-1.232 1.806c-.616.457-1.382.686-2.296.686-.728 0-1.382-.163-1.96-.49a3.49 3.49 0 0 1-1.344-1.386c-.327-.607-.49-1.307-.49-2.1 0-.793.158-1.489.476-2.086a3.303 3.303 0 0 1 1.33-1.372c.578-.327 1.241-.49 1.988-.49.728 0 1.372.159 1.932.476.56.317.989.756 1.288 1.316.308.551.462 1.176.462 1.876Zm-1.316-.266c0-.485-.108-.901-.322-1.246a2.026 2.026 0 0 0-.882-.798 2.626 2.626 0 0 0-1.218-.28c-.644 0-1.195.205-1.652.616-.448.411-.705.98-.77 1.708h4.844Zm5.853 3.22 2.38-6.496h1.358l-3.01 7.672h-1.484l-3.01-7.672h1.372l2.394 6.496Zm11.992-2.954c0 .243-.014.499-.042.77h-6.132c.047.756.303 1.349.77 1.778.476.42 1.05.63 1.722.63.551 0 1.008-.126 1.372-.378.373-.261.635-.607.784-1.036h1.372a3.332 3.332 0 0 1-1.232 1.806c-.616.457-1.381.686-2.296.686-.728 0-1.381-.163-1.96-.49a3.503 3.503 0 0 1-1.344-1.386c-.327-.607-.49-1.307-.49-2.1 0-.793.159-1.489.476-2.086a3.309 3.309 0 0 1 1.33-1.372c.579-.327 1.241-.49 1.988-.49.728 0 1.372.159 1.932.476.56.317.989.756 1.288 1.316.308.551.462 1.176.462 1.876Zm-1.316-.266c0-.485-.107-.901-.322-1.246a2.026 2.026 0 0 0-.882-.798 2.626 2.626 0 0 0-1.218-.28c-.644 0-1.195.205-1.652.616-.448.411-.705.98-.77 1.708h4.844Zm4.272-5.964V148h-1.274v-10.36h1.274Z" fill="#747477"/><path d="M249.602 143.114c0-.952.215-1.806.644-2.562a4.68 4.68 0 0 1 1.75-1.792 4.887 4.887 0 0 1 2.478-.644c1.064 0 1.993.257 2.786.77.793.513 1.372 1.241 1.736 2.184h-1.526c-.271-.588-.663-1.041-1.176-1.358-.504-.317-1.111-.476-1.82-.476-.681 0-1.293.159-1.834.476-.541.317-.966.77-1.274 1.358-.308.579-.462 1.26-.462 2.044 0 .775.154 1.456.462 2.044a3.337 3.337 0 0 0 1.274 1.344c.541.317 1.153.476 1.834.476.709 0 1.316-.154 1.82-.462.513-.317.905-.77 1.176-1.358h1.526c-.364.933-.943 1.657-1.736 2.17-.793.504-1.722.756-2.786.756-.905 0-1.731-.21-2.478-.63a4.706 4.706 0 0 1-1.75-1.778c-.429-.756-.644-1.61-.644-2.562Zm14.636 5.012a3.965 3.965 0 0 1-1.96-.49 3.57 3.57 0 0 1-1.372-1.386c-.326-.607-.49-1.307-.49-2.1 0-.784.168-1.475.504-2.072a3.508 3.508 0 0 1 1.4-1.386c.588-.327 1.246-.49 1.974-.49s1.386.163 1.974.49a3.44 3.44 0 0 1 1.386 1.372c.346.597.518 1.293.518 2.086 0 .793-.177 1.493-.532 2.1a3.602 3.602 0 0 1-1.414 1.386 4.07 4.07 0 0 1-1.988.49Zm0-1.12c.458 0 .887-.107 1.288-.322.402-.215.724-.537.966-.966.252-.429.378-.952.378-1.568 0-.616-.121-1.139-.364-1.568-.242-.429-.56-.747-.952-.952a2.605 2.605 0 0 0-1.274-.322c-.466 0-.896.107-1.288.322-.382.205-.69.523-.924.952-.233.429-.35.952-.35 1.568 0 .625.112 1.153.336 1.582.234.429.542.751.924.966.383.205.803.308 1.26.308Zm6.884-9.366V148h-1.274v-10.36h1.274Zm3.445 0V148h-1.274v-10.36h1.274Zm9.171 6.23c0 .243-.014.499-.042.77h-6.132c.047.756.303 1.349.77 1.778.476.42 1.05.63 1.722.63.551 0 1.008-.126 1.372-.378.373-.261.635-.607.784-1.036h1.372a3.332 3.332 0 0 1-1.232 1.806c-.616.457-1.381.686-2.296.686-.728 0-1.381-.163-1.96-.49a3.503 3.503 0 0 1-1.344-1.386c-.327-.607-.49-1.307-.49-2.1 0-.793.159-1.489.476-2.086a3.309 3.309 0 0 1 1.33-1.372c.579-.327 1.241-.49 1.988-.49.728 0 1.372.159 1.932.476.56.317.989.756 1.288 1.316.308.551.462 1.176.462 1.876Zm-1.316-.266c0-.485-.107-.901-.322-1.246a2.026 2.026 0 0 0-.882-.798 2.626 2.626 0 0 0-1.218-.28c-.644 0-1.195.205-1.652.616-.448.411-.705.98-.77 1.708h4.844Zm6.162-3.402c.662 0 1.241.145 1.736.434.504.289.877.653 1.12 1.092v-1.4h1.288v7.84c0 .7-.15 1.321-.448 1.862a3.17 3.17 0 0 1-1.288 1.288c-.551.308-1.195.462-1.932.462-1.008 0-1.848-.238-2.52-.714a2.79 2.79 0 0 1-1.19-1.946h1.26c.14.467.429.84.868 1.12.438.289.966.434 1.582.434.7 0 1.269-.219 1.708-.658.448-.439.672-1.055.672-1.848v-1.61c-.252.448-.626.821-1.12 1.12-.495.299-1.074.448-1.736.448a3.548 3.548 0 0 1-1.862-.504 3.528 3.528 0 0 1-1.302-1.414c-.318-.607-.476-1.297-.476-2.072 0-.784.158-1.47.476-2.058a3.458 3.458 0 0 1 1.302-1.386c.56-.327 1.18-.49 1.862-.49Zm2.856 3.948c0-.579-.117-1.083-.35-1.512a2.418 2.418 0 0 0-.952-.98 2.5 2.5 0 0 0-1.302-.35c-.476 0-.91.112-1.302.336a2.438 2.438 0 0 0-.938.98c-.234.429-.35.933-.35 1.512 0 .588.116 1.101.35 1.54.233.429.546.761.938.994.392.224.826.336 1.302.336.476 0 .91-.112 1.302-.336.401-.233.718-.565.952-.994.233-.439.35-.947.35-1.526Zm10.441-.28c0 .243-.014.499-.042.77h-6.132c.046.756.303 1.349.77 1.778.476.42 1.05.63 1.722.63.55 0 1.008-.126 1.372-.378.373-.261.634-.607.784-1.036h1.372a3.338 3.338 0 0 1-1.232 1.806c-.616.457-1.382.686-2.296.686-.728 0-1.382-.163-1.96-.49a3.49 3.49 0 0 1-1.344-1.386c-.327-.607-.49-1.307-.49-2.1 0-.793.158-1.489.476-2.086a3.303 3.303 0 0 1 1.33-1.372c.578-.327 1.241-.49 1.988-.49.728 0 1.372.159 1.932.476.56.317.989.756 1.288 1.316.308.551.462 1.176.462 1.876Zm-1.316-.266c0-.485-.108-.901-.322-1.246a2.026 2.026 0 0 0-.882-.798 2.626 2.626 0 0 0-1.218-.28c-.644 0-1.195.205-1.652.616-.448.411-.705.98-.77 1.708h4.844Z" fill="#606062"/><path d="M795.5 150.5h15M803.185 137.857l2.357-2.357 4.125 4.125-2.357 2.357m-4.125-4.125-4.623 4.623a1 1 0 0 0-.293.707v3.711h3.71c.265 0 .52-.105.707-.293l4.624-4.623m-4.125-4.125 4.125 4.125" stroke="#959595" stroke-width="1.5" stroke-linecap="round" stroke-linejoin="round"/><g filter="url(#a)"><path d="M12 172.487C12 165.59 17.59 160 24.486 160H867.12c6.896 0 12.487 5.59 12.487 12.486v129.802c0 6.896-5.591 12.487-12.487 12.487H24.486c-6.896 0-12.486-5.591-12.486-12.487V172.487Z" fill="#fff"/><path d="M41.672 207.423h5.293v1.605h-7.267V193.91h1.974v13.513Zm6.651-4.381c0-1.215.246-2.278.738-3.189.491-.925 1.164-1.641 2.017-2.147.867-.506 1.83-.759 2.885-.759 1.04 0 1.944.224 2.71.672.767.448 1.338 1.012 1.714 1.692v-2.169h1.996v11.886h-1.996v-2.212c-.39.694-.976 1.272-1.757 1.735-.766.448-1.662.672-2.689.672-1.056 0-2.01-.26-2.863-.78-.853-.521-1.526-1.251-2.017-2.191-.492-.94-.738-2.01-.738-3.21Zm10.064.021c0-.896-.18-1.677-.542-2.342a3.733 3.733 0 0 0-1.475-1.518 3.866 3.866 0 0 0-2.017-.543c-.737 0-1.41.174-2.017.521-.607.347-1.092.853-1.453 1.518-.362.665-.543 1.446-.543 2.343 0 .911.181 1.706.543 2.386a3.936 3.936 0 0 0 1.453 1.54c.607.347 1.28.52 2.017.52.737 0 1.41-.173 2.017-.52a3.887 3.887 0 0 0 1.475-1.54c.362-.68.542-1.468.542-2.365Zm11.123-6.138c1.446 0 2.617.441 3.513 1.323.897.868 1.345 2.126 1.345 3.774v7.006h-1.952v-6.724c0-1.186-.296-2.089-.89-2.711-.592-.636-1.402-.954-2.428-.954-1.041 0-1.873.325-2.495.976-.607.65-.91 1.597-.91 2.841v6.572h-1.974v-11.886h1.973v1.692a3.933 3.933 0 0 1 1.584-1.41 5.008 5.008 0 0 1 2.234-.499Zm12.984.022c1.027 0 1.924.224 2.69.672.78.448 1.36 1.012 1.735 1.692v-2.169h1.996v12.146c0 1.085-.232 2.047-.694 2.885a4.912 4.912 0 0 1-1.996 1.996c-.853.477-1.85.716-2.993.716-1.562 0-2.863-.369-3.904-1.107-1.041-.737-1.656-1.742-1.844-3.015h1.952c.217.723.665 1.302 1.345 1.736.68.448 1.497.672 2.451.672 1.085 0 1.967-.34 2.646-1.019.694-.68 1.041-1.634 1.041-2.864v-2.494c-.39.694-.968 1.273-1.735 1.735-.766.463-1.663.694-2.69.694a5.505 5.505 0 0 1-2.884-.78c-.853-.521-1.526-1.251-2.017-2.191-.492-.94-.738-2.01-.738-3.21 0-1.215.246-2.278.737-3.189.492-.925 1.165-1.641 2.018-2.147.867-.506 1.829-.759 2.885-.759Zm4.425 6.116c0-.896-.18-1.677-.542-2.342a3.734 3.734 0 0 0-1.475-1.518 3.865 3.865 0 0 0-2.017-.543c-.738 0-1.41.174-2.017.521-.608.347-1.092.853-1.453 1.518-.362.665-.543 1.446-.543 2.343 0 .911.181 1.706.543 2.386a3.935 3.935 0 0 0 1.453 1.54c.607.347 1.28.52 2.017.52.737 0 1.41-.173 2.017-.52a3.887 3.887 0 0 0 1.475-1.54c.362-.68.542-1.468.542-2.365Zm15.873-5.921v11.886h-1.974v-1.757c-.376.608-.904 1.085-1.583 1.432a4.885 4.885 0 0 1-2.213.499c-.925 0-1.757-.188-2.494-.564-.738-.391-1.323-.969-1.757-1.735-.42-.767-.63-1.7-.63-2.798v-6.963h1.953v6.702c0 1.171.296 2.075.89 2.711.592.622 1.402.933 2.429.933 1.055 0 1.887-.325 2.494-.976.607-.651.911-1.598.911-2.841v-6.529h1.974Zm2.595 5.9c0-1.215.246-2.278.737-3.189.492-.925 1.164-1.641 2.018-2.147.867-.506 1.829-.759 2.884-.759 1.041 0 1.945.224 2.712.672.766.448 1.337 1.012 1.713 1.692v-2.169h1.996v11.886h-1.996v-2.212c-.39.694-.976 1.272-1.757 1.735-.766.448-1.663.672-2.689.672-1.056 0-2.01-.26-2.863-.78-.854-.521-1.526-1.251-2.018-2.191-.491-.94-.737-2.01-.737-3.21Zm10.064.021c0-.896-.181-1.677-.542-2.342-.362-.665-.853-1.171-1.475-1.518a3.865 3.865 0 0 0-2.017-.543c-.738 0-1.41.174-2.017.521-.608.347-1.092.853-1.454 1.518-.361.665-.542 1.446-.542 2.343 0 .911.181 1.706.542 2.386.362.665.846 1.178 1.454 1.54a3.99 3.99 0 0 0 2.017.52c.737 0 1.41-.173 2.017-.52a3.888 3.888 0 0 0 1.475-1.54c.361-.68.542-1.468.542-2.365Zm10.233-6.116c1.027 0 1.923.224 2.69.672.781.448 1.359 1.012 1.735 1.692v-2.169h1.995v12.146c0 1.085-.231 2.047-.694 2.885a4.91 4.91 0 0 1-1.995 1.996c-.853.477-1.851.716-2.993.716-1.562 0-2.863-.369-3.905-1.107-1.041-.737-1.655-1.742-1.843-3.015h1.952c.217.723.665 1.302 1.345 1.736.679.448 1.496.672 2.451.672 1.084 0 1.966-.34 2.646-1.019.694-.68 1.041-1.634 1.041-2.864v-2.494c-.39.694-.969 1.273-1.735 1.735-.767.463-1.663.694-2.69.694a5.508 5.508 0 0 1-2.885-.78c-.853-.521-1.525-1.251-2.017-2.191-.491-.94-.737-2.01-.737-3.21 0-1.215.246-2.278.737-3.189.492-.925 1.164-1.641 2.017-2.147.868-.506 1.83-.759 2.885-.759Zm4.425 6.116c0-.896-.181-1.677-.542-2.342-.362-.665-.853-1.171-1.475-1.518a3.868 3.868 0 0 0-2.017-.543c-.738 0-1.41.174-2.018.521-.607.347-1.091.853-1.453 1.518-.361.665-.542 1.446-.542 2.343 0 .911.181 1.706.542 2.386a3.94 3.94 0 0 0 1.453 1.54c.608.347 1.28.52 2.018.52.737 0 1.409-.173 2.017-.52a3.888 3.888 0 0 0 1.475-1.54c.361-.68.542-1.468.542-2.365Zm16.176-.433c0 .376-.022.773-.065 1.193h-9.5c.072 1.171.47 2.089 1.193 2.754.737.651 1.626.976 2.668.976.853 0 1.561-.195 2.125-.585.579-.405.983-.94 1.215-1.605h2.125a5.163 5.163 0 0 1-1.908 2.798c-.955.708-2.14 1.062-3.557 1.062-1.128 0-2.141-.253-3.037-.759a5.414 5.414 0 0 1-2.082-2.147c-.506-.94-.759-2.025-.759-3.254s.245-2.306.737-3.231c.492-.926 1.178-1.634 2.061-2.126.896-.506 1.923-.759 3.08-.759 1.127 0 2.125.246 2.993.737a5.014 5.014 0 0 1 1.995 2.039c.477.853.716 1.822.716 2.907Zm-2.039-.413c0-.751-.166-1.395-.499-1.93a3.135 3.135 0 0 0-1.366-1.236 4.077 4.077 0 0 0-1.887-.434c-.998 0-1.851.318-2.56.954-.694.637-1.091 1.519-1.193 2.646h7.505Z" fill="#42445A"/><path d="M38.028 247.394a8.676 8.676 0 0 1 8.676-8.676h139.888a8.677 8.677 0 0 1 8.676 8.676v32.676a8.676 8.676 0 0 1-8.676 8.676H46.704a8.676 8.676 0 0 1-8.676-8.676v-32.676Z" fill="#DEDEE3"/><g clip-path="url(#b)"><rect x="55.38" y="256.502" width="21.69" height="14.46" rx="2.169" fill="#fff"/><mask id="c" style="mask-type:luminance" maskUnits="userSpaceOnUse" x="55" y="256" width="23" height="15"><rect x="55.38" y="256.502" width="21.69" height="14.46" rx="2.169" fill="#fff"/></mask><g mask="url(#c)"><path fill-rule="evenodd" clip-rule="evenodd" d="M77.07 256.502H55.38v.964h21.69v-.964Zm0 1.929H55.38v.964h21.69v-.964Zm-21.69 1.927h21.69v.964H55.38v-.964Zm21.69 1.929H55.38v.964h21.69v-.964Zm-21.69 1.928h21.69v.964H55.38v-.964Zm21.69 1.927H55.38v.964h21.69v-.964Zm-21.69 1.928h21.69v.964H55.38v-.964Zm21.69 1.928H55.38v.964h21.69v-.964Z" fill="#D02F44"/><path fill="#46467F" d="M55.38 256.502h9.296v6.748H55.38z"/><g filter="url(#d)"><path fill-rule="evenodd" clip-rule="evenodd" d="M59.512 257.948c0 .266-.231.482-.517.482-.285 0-.516-.216-.516-.482s.231-.482.516-.482c.286 0 .517.216.517.482Zm-2.066.001c0 .266-.23.482-.516.482-.285 0-.516-.216-.516-.482s.23-.482.516-.482c.285 0 .517.216.517.482Zm3.614.481c.286 0 .517-.216.517-.482s-.231-.482-.517-.482c-.285 0-.516.216-.516.482s.231.482.517.482Zm2.583-.482c0 .266-.231.482-.517.482-.285 0-.516-.216-.516-.482s.231-.482.517-.482c.285 0 .516.216.516.482Zm-5.681 1.446c.285 0 .516-.215.516-.482 0-.266-.23-.482-.516-.482-.285 0-.517.216-.517.482 0 .267.232.482.517.482Zm2.582-.482c0 .267-.23.482-.516.482-.285 0-.516-.215-.516-.482 0-.266.23-.482.516-.482.285 0 .517.216.517.482Zm1.55.482c.285 0 .517-.215.517-.482 0-.266-.232-.482-.517-.482-.285 0-.516.216-.516.482 0 .267.231.482.516.482Zm1.55.483c0 .266-.232.482-.517.482-.285 0-.517-.216-.517-.482s.232-.482.517-.482c.285 0 .516.216.516.482Zm-2.583.482c.285 0 .516-.216.516-.482s-.231-.482-.516-.482c-.286 0-.517.216-.517.482s.231.482.517.482Zm-1.55-.482c0 .266-.23.482-.516.482-.285 0-.516-.216-.516-.482s.231-.482.516-.482c.286 0 .517.216.517.482Zm-2.582.482c.286 0 .517-.216.517-.482s-.231-.482-.517-.482c-.285 0-.516.216-.516.482s.231.482.516.482Zm1.55.482c0 .266-.232.482-.517.482-.285 0-.517-.216-.517-.482 0-.267.232-.482.517-.482.285 0 .516.215.516.482Zm1.549.482c.285 0 .517-.216.517-.482 0-.267-.232-.482-.517-.482-.285 0-.516.215-.516.482 0 .266.23.482.516.482Zm2.583-.482c0 .266-.232.482-.517.482-.285 0-.516-.216-.516-.482 0-.267.231-.482.516-.482.285 0 .517.215.517.482Zm.516 1.445c.285 0 .516-.215.516-.482 0-.266-.231-.482-.516-.482-.285 0-.517.216-.517.482 0 .267.232.482.517.482Zm-1.55-.482c0 .267-.231.482-.516.482-.286 0-.517-.215-.517-.482 0-.266.231-.482.517-.482.285 0 .516.216.516.482Zm-2.582.482c.286 0 .517-.215.517-.482 0-.266-.231-.482-.517-.482-.285 0-.516.216-.516.482 0 .267.231.482.516.482Zm-1.55-.482c0 .267-.23.482-.516.482-.285 0-.516-.215-.516-.482 0-.266.231-.482.516-.482.286 0 .517.216.517.482Z" fill="url(#e)"/></g></g></g><path d="M90.466 259.273v3.538h3.857v1.139h-3.857v3.644h4.312v1.138h-5.693v-10.597h5.693v1.138h-4.312Zm10.457.987c1.012 0 1.832.309 2.459.926.628.608.942 1.488.942 2.642v4.904h-1.367v-4.706c0-.83-.207-1.463-.622-1.898-.415-.446-.982-.668-1.701-.668-.728 0-1.31.227-1.746.683-.425.455-.637 1.118-.637 1.989v4.6h-1.382v-8.32h1.382v1.184a2.757 2.757 0 0 1 1.108-.987 3.52 3.52 0 0 1 1.564-.349Zm9.089.015c.719 0 1.346.157 1.883.471.546.314.951.709 1.214 1.184v-1.518h1.397v8.503c0 .759-.162 1.432-.486 2.019a3.434 3.434 0 0 1-1.396 1.397c-.598.334-1.296.501-2.096.501-1.093 0-2.004-.258-2.733-.774a3.028 3.028 0 0 1-1.29-2.111h1.366c.152.506.466.911.942 1.215.475.314 1.047.47 1.715.47.76 0 1.377-.237 1.853-.713.486-.476.728-1.144.728-2.004v-1.746c-.273.485-.678.89-1.214 1.214-.537.324-1.164.486-1.883.486a3.843 3.843 0 0 1-2.019-.547 3.83 3.83 0 0 1-1.412-1.533c-.344-.658-.516-1.407-.516-2.247 0-.85.172-1.594.516-2.232a3.747 3.747 0 0 1 1.412-1.503 3.935 3.935 0 0 1 2.019-.532Zm3.097 4.282c0-.627-.126-1.174-.379-1.64a2.614 2.614 0 0 0-1.033-1.063 2.706 2.706 0 0 0-1.412-.379c-.516 0-.986.121-1.412.364a2.642 2.642 0 0 0-1.017 1.063c-.253.466-.379 1.012-.379 1.64 0 .638.126 1.194.379 1.67.253.466.592.825 1.017 1.078.426.243.896.364 1.412.364.517 0 .987-.121 1.412-.364a2.71 2.71 0 0 0 1.033-1.078c.253-.476.379-1.027.379-1.655Zm5.114-7.06v11.235h-1.382v-11.235h1.382Zm3.068 1.564a.906.906 0 0 1-.668-.274.907.907 0 0 1-.273-.668.91.91 0 0 1 .273-.668.91.91 0 0 1 .668-.273c.253 0 .466.091.638.273a.91.91 0 0 1 .273.668.907.907 0 0 1-.273.668.84.84 0 0 1-.638.274Zm.668 1.351v8.32h-1.381v-8.32h1.381Zm5.301 8.457c-.638 0-1.21-.106-1.716-.319-.506-.222-.906-.526-1.2-.911a2.463 2.463 0 0 1-.485-1.351h1.427c.04.415.233.754.577 1.017.354.263.815.395 1.381.395.527 0 .942-.116 1.245-.349.304-.233.456-.527.456-.881 0-.364-.162-.632-.486-.805-.324-.182-.825-.359-1.503-.531a12.343 12.343 0 0 1-1.518-.486 2.874 2.874 0 0 1-1.002-.744c-.274-.334-.41-.769-.41-1.306 0-.425.126-.814.379-1.169.253-.354.613-.632 1.078-.835.466-.212.997-.319 1.594-.319.922 0 1.666.233 2.232.699.567.465.871 1.103.911 1.913h-1.381a1.421 1.421 0 0 0-.532-1.048c-.313-.263-.739-.394-1.275-.394-.496 0-.891.106-1.184.318-.294.213-.441.491-.441.835 0 .274.086.501.258.684.183.172.405.313.668.425.274.101.648.217 1.124.349a11.11 11.11 0 0 1 1.458.486c.374.152.693.385.956.698.273.314.415.724.425 1.23 0 .456-.126.866-.379 1.23s-.613.653-1.078.865c-.456.203-.982.304-1.579.304Zm9.117-8.609c.627 0 1.194.137 1.7.41.506.263.901.663 1.184 1.2.294.536.441 1.189.441 1.958v4.904h-1.367v-4.706c0-.83-.207-1.463-.622-1.898-.415-.446-.982-.668-1.701-.668-.729 0-1.311.227-1.746.683-.425.455-.638 1.118-.638 1.989v4.6h-1.381v-11.235h1.381v4.099a2.739 2.739 0 0 1 1.124-.987 3.722 3.722 0 0 1 1.625-.349Zm13.182 11.296c-.971-.951-1.731-2.161-2.277-3.628-.537-1.468-.805-3.052-.805-4.753 0-1.741.283-3.365.85-4.873.577-1.519 1.397-2.769 2.46-3.751h1.442v.137a10.235 10.235 0 0 0-2.566 3.841 12.961 12.961 0 0 0-.85 4.646c0 1.569.268 3.067.805 4.495a10.916 10.916 0 0 0 2.384 3.75v.136h-1.443Zm4.693-13.406v6.696c0 .941.228 1.639.684 2.095.465.455 1.108.683 1.928.683.81 0 1.442-.228 1.898-.683.465-.456.698-1.154.698-2.095v-6.696h1.382v6.68c0 .881-.177 1.625-.532 2.232a3.335 3.335 0 0 1-1.442 1.336c-.597.294-1.27.441-2.019.441-.749 0-1.428-.147-2.035-.441a3.355 3.355 0 0 1-1.427-1.336c-.344-.607-.516-1.351-.516-2.232v-6.68h1.381Zm12.25 10.689c-.698 0-1.326-.122-1.883-.365-.546-.253-.976-.597-1.29-1.032a2.682 2.682 0 0 1-.486-1.534h1.473c.05.496.253.916.607 1.261.365.334.891.501 1.579.501.658 0 1.174-.162 1.549-.486.384-.334.577-.759.577-1.276 0-.405-.112-.733-.334-.987a2.129 2.129 0 0 0-.835-.576 12.965 12.965 0 0 0-1.352-.426c-.698-.182-1.26-.364-1.685-.546a2.805 2.805 0 0 1-1.078-.85c-.293-.395-.44-.922-.44-1.58 0-.576.147-1.088.44-1.533.294-.445.704-.79 1.23-1.032.536-.243 1.149-.365 1.837-.365.992 0 1.802.248 2.429.744.638.496.997 1.154 1.078 1.974H168.4c-.051-.405-.263-.759-.638-1.063-.374-.314-.87-.471-1.488-.471-.577 0-1.047.152-1.412.456-.364.293-.546.708-.546 1.245 0 .385.106.698.319.941.222.243.491.43.804.562.324.122.775.263 1.352.425.698.193 1.26.385 1.685.577.425.182.789.471 1.093.866.304.384.456.911.456 1.579 0 .516-.137 1.002-.41 1.457-.274.456-.678.825-1.215 1.109-.536.283-1.169.425-1.898.425Zm5.116 2.717v-.136a10.745 10.745 0 0 0 2.368-3.75c.547-1.428.82-2.926.82-4.495 0-1.609-.288-3.158-.865-4.646a10.084 10.084 0 0 0-2.551-3.841v-.137h1.442c1.063.982 1.878 2.232 2.445 3.751.577 1.508.865 3.132.865 4.873 0 1.701-.273 3.285-.82 4.753-.536 1.467-1.29 2.677-2.262 3.628h-1.442Z" fill="#42445A"/><path d="M208.282 247.394a8.676 8.676 0 0 1 8.676-8.676h140.887a8.676 8.676 0 0 1 8.676 8.676v32.676a8.676 8.676 0 0 1-8.676 8.676H216.958a8.676 8.676 0 0 1-8.676-8.676v-32.676Z" fill="#DEDEE3"/><g clip-path="url(#f)"><rect x="225.634" y="256.502" width="21.69" height="14.46" rx="2.169" fill="#fff"/><mask id="g" style="mask-type:luminance" maskUnits="userSpaceOnUse" x="225" y="256" width="23" height="15"><rect x="225.634" y="256.502" width="21.69" height="14.46" rx="2.169" fill="#fff"/></mask><g mask="url(#g)"><path fill="#0A17A7" d="M225.634 256.502h21.69v14.46h-21.69z"/><path fill-rule="evenodd" clip-rule="evenodd" d="m224.64 255.117 9.257 5.827v-5.405h5.164v5.405l9.256-5.827 1.156 1.599-7.319 4.607h5.17v4.82h-5.17l7.319 4.607-1.156 1.598-9.256-5.827v5.406h-5.164v-5.406l-9.257 5.827-1.155-1.598 7.319-4.607h-5.17v-4.82h5.17l-7.319-4.607 1.155-1.599Z" fill="#fff"/><path d="m240.095 261.081 9.811-6.024M241.137 266.406l8.795 5.533M231.835 261.065l-9.174-5.771M232.83 266.339l-10.169 6.294" stroke="#DB1F35" stroke-width=".723" stroke-linecap="round"/><path fill-rule="evenodd" clip-rule="evenodd" d="M225.634 265.178h9.296v5.784h3.098v-5.784h9.296v-2.892h-9.296v-5.784h-3.098v5.784h-9.296v2.892Z" fill="#E6273E"/></g></g><path d="M260.72 259.273v3.538h3.856v1.139h-3.856v3.644h4.312v1.138h-5.694v-10.597h5.694v1.138h-4.312Zm10.456.987c1.013 0 1.832.309 2.46.926.628.608.941 1.488.941 2.642v4.904h-1.366v-4.706c0-.83-.208-1.463-.623-1.898-.415-.446-.981-.668-1.7-.668-.729 0-1.311.227-1.746.683-.425.455-.638 1.118-.638 1.989v4.6h-1.382v-8.32h1.382v1.184a2.758 2.758 0 0 1 1.108-.987 3.524 3.524 0 0 1 1.564-.349Zm9.09.015c.718 0 1.346.157 1.882.471.547.314.952.709 1.215 1.184v-1.518h1.397v8.503c0 .759-.162 1.432-.486 2.019a3.436 3.436 0 0 1-1.397 1.397c-.597.334-1.295.501-2.095.501-1.093 0-2.004-.258-2.733-.774-.729-.517-1.159-1.22-1.291-2.111h1.367c.152.506.465.911.941 1.215.476.314 1.048.47 1.716.47.759 0 1.377-.237 1.852-.713.486-.476.729-1.144.729-2.004v-1.746c-.273.485-.678.89-1.215 1.214-.536.324-1.164.486-1.882.486a3.849 3.849 0 0 1-2.02-.547 3.83 3.83 0 0 1-1.412-1.533c-.344-.658-.516-1.407-.516-2.247 0-.85.172-1.594.516-2.232a3.747 3.747 0 0 1 1.412-1.503 3.941 3.941 0 0 1 2.02-.532Zm3.097 4.282c0-.627-.126-1.174-.38-1.64a2.618 2.618 0 0 0-1.032-1.063 2.709 2.709 0 0 0-1.412-.379c-.516 0-.987.121-1.412.364a2.642 2.642 0 0 0-1.017 1.063c-.253.466-.38 1.012-.38 1.64 0 .638.127 1.194.38 1.67.253.466.592.825 1.017 1.078.425.243.896.364 1.412.364.516 0 .987-.121 1.412-.364a2.715 2.715 0 0 0 1.032-1.078c.254-.476.38-1.027.38-1.655Zm5.113-7.06v11.235h-1.381v-11.235h1.381Zm3.069 1.564a.906.906 0 0 1-.668-.274.908.908 0 0 1-.274-.668c0-.263.092-.485.274-.668a.91.91 0 0 1 .668-.273c.253 0 .465.091.638.273a.91.91 0 0 1 .273.668.907.907 0 0 1-.273.668.842.842 0 0 1-.638.274Zm.668 1.351v8.32h-1.382v-8.32h1.382Zm5.3 8.457c-.637 0-1.209-.106-1.715-.319-.507-.222-.906-.526-1.2-.911a2.472 2.472 0 0 1-.486-1.351h1.427c.041.415.233.754.577 1.017.355.263.815.395 1.382.395.526 0 .941-.116 1.245-.349.304-.233.456-.527.456-.881 0-.364-.162-.632-.486-.805-.324-.182-.825-.359-1.503-.531a12.365 12.365 0 0 1-1.519-.486 2.892 2.892 0 0 1-1.002-.744c-.273-.334-.41-.769-.41-1.306 0-.425.127-.814.38-1.169.253-.354.612-.632 1.078-.835.465-.212.997-.319 1.594-.319.921 0 1.665.233 2.232.699.567.465.87 1.103.911 1.913h-1.382a1.417 1.417 0 0 0-.531-1.048c-.314-.263-.739-.394-1.276-.394-.496 0-.89.106-1.184.318-.293.213-.44.491-.44.835 0 .274.086.501.258.684.182.172.405.313.668.425.273.101.648.217 1.124.349.597.162 1.083.324 1.457.486.375.152.694.385.957.698.273.314.415.724.425 1.23 0 .456-.127.866-.38 1.23s-.612.653-1.078.865c-.455.203-.982.304-1.579.304Zm9.117-8.609c.628 0 1.194.137 1.701.41.506.263.9.663 1.184 1.2.293.536.44 1.189.44 1.958v4.904h-1.366v-4.706c0-.83-.208-1.463-.623-1.898-.415-.446-.982-.668-1.7-.668-.729 0-1.311.227-1.746.683-.425.455-.638 1.118-.638 1.989v4.6H302.5v-11.235h1.382v4.099a2.736 2.736 0 0 1 1.123-.987 3.726 3.726 0 0 1 1.625-.349Zm13.183 11.296c-.972-.951-1.731-2.161-2.278-3.628-.536-1.468-.804-3.052-.804-4.753 0-1.741.283-3.365.85-4.873.577-1.519 1.397-2.769 2.46-3.751h1.442v.137a10.223 10.223 0 0 0-2.566 3.841 12.94 12.94 0 0 0-.85 4.646c0 1.569.268 3.067.804 4.495a10.945 10.945 0 0 0 2.384 3.75v.136h-1.442Zm4.693-13.406v6.696c0 .941.228 1.639.683 2.095.466.455 1.109.683 1.928.683.81 0 1.443-.228 1.898-.683.466-.456.699-1.154.699-2.095v-6.696h1.381v6.68c0 .881-.177 1.625-.531 2.232a3.335 3.335 0 0 1-1.442 1.336c-.598.294-1.271.441-2.02.441-.749 0-1.427-.147-2.034-.441a3.363 3.363 0 0 1-1.428-1.336c-.344-.607-.516-1.351-.516-2.232v-6.68h1.382Zm14.633 10.582-4.357-4.828v4.828H333.4V258.15h1.382v4.904l4.373-4.904h1.746l-4.798 5.299 4.843 5.283h-1.807Zm2.91 2.824v-.136a10.747 10.747 0 0 0 2.369-3.75c.546-1.428.82-2.926.82-4.495 0-1.609-.289-3.158-.866-4.646a10.073 10.073 0 0 0-2.551-3.841v-.137h1.443c1.063.982 1.877 2.232 2.444 3.751.577 1.508.866 3.132.866 4.873 0 1.701-.274 3.285-.82 4.753-.537 1.467-1.291 2.677-2.263 3.628h-1.442Z" fill="#42445A"/><path d="M379.535 247.394a8.677 8.677 0 0 1 8.676-8.676h145.888a8.677 8.677 0 0 1 8.676 8.676v32.676a8.676 8.676 0 0 1-8.676 8.676H388.211a8.676 8.676 0 0 1-8.676-8.676v-32.676Z" fill="#DEDEE3"/><g clip-path="url(#h)"><rect x="396.887" y="256.502" width="21.69" height="14.46" rx="2.169" fill="#fff"/><mask id="i" style="mask-type:luminance" maskUnits="userSpaceOnUse" x="396" y="256" width="23" height="15"><rect x="396.887" y="256.502" width="21.69" height="14.46" rx="2.169" fill="#fff"/></mask><g mask="url(#i)"><path fill-rule="evenodd" clip-rule="evenodd" d="M396.887 260.358h21.691v-3.856h-21.691v3.856ZM396.887 270.963h21.691v-3.856h-21.691v3.856Z" fill="#DD172C"/><path fill-rule="evenodd" clip-rule="evenodd" d="M396.887 267.106h21.691v-6.748h-21.691v6.748Z" fill="#FFD133"/><path fill-rule="evenodd" clip-rule="evenodd" d="M402.568 263.25h1.032v.482h-1.032v-.482Z" fill="#FFEDB1"/><path d="M402.068 263.131h1.001c.212 0 .379.182.36.393l-.096 1.076a.768.768 0 0 1-1.529 0l-.096-1.076a.36.36 0 0 1 .36-.393Z" stroke="#A41517" stroke-width=".723"/><path fill-rule="evenodd" clip-rule="evenodd" d="M401.535 263.732h2.066v.482h-.517l-.516.964-.517-.964h-.516v-.482Z" fill="#A41517"/><rect x="399.986" y="262.286" width="1.033" height="3.374" rx=".516" fill="#A41517"/><rect x="404.117" y="262.286" width="1.033" height="3.374" rx=".516" fill="#A41517"/><path d="M401.535 262.094a.77.77 0 0 1 .771-.771h.524c.425 0 .771.345.771.771a.193.193 0 0 1-.193.193h-1.68a.192.192 0 0 1-.193-.193Z" fill="#A41517"/></g></g><path d="M433.947 268.839c-.698 0-1.326-.122-1.883-.365-.546-.253-.976-.597-1.29-1.032a2.682 2.682 0 0 1-.486-1.534h1.473c.05.496.253.916.607 1.261.364.334.891.501 1.579.501.658 0 1.174-.162 1.549-.486.384-.334.577-.759.577-1.276 0-.405-.112-.733-.334-.987a2.129 2.129 0 0 0-.835-.576 12.965 12.965 0 0 0-1.352-.426c-.698-.182-1.26-.364-1.685-.546a2.805 2.805 0 0 1-1.078-.85c-.293-.395-.44-.922-.44-1.58 0-.576.147-1.088.44-1.533.294-.445.704-.79 1.23-1.032.536-.243 1.149-.365 1.837-.365.992 0 1.802.248 2.429.744.638.496.997 1.154 1.078 1.974h-1.518c-.051-.405-.263-.759-.638-1.063-.374-.314-.87-.471-1.488-.471-.577 0-1.047.152-1.412.456-.364.293-.546.708-.546 1.245 0 .385.106.698.319.941.222.243.491.43.804.562.324.122.775.263 1.352.425.698.193 1.26.385 1.685.577.425.182.789.471 1.093.866.304.384.456.911.456 1.579 0 .516-.137 1.002-.41 1.457-.274.456-.679.825-1.215 1.109-.536.283-1.169.425-1.898.425Zm6.937-6.893c.274-.476.679-.871 1.215-1.185.547-.324 1.179-.486 1.898-.486.739 0 1.407.178 2.004.532a3.708 3.708 0 0 1 1.427 1.503c.345.638.517 1.382.517 2.232 0 .84-.172 1.589-.517 2.247a3.788 3.788 0 0 1-1.427 1.533 3.765 3.765 0 0 1-2.004.547c-.709 0-1.336-.157-1.883-.471-.536-.324-.946-.723-1.23-1.199v5.481h-1.381v-12.268h1.381v1.534Zm5.649 2.596c0-.628-.127-1.174-.38-1.64a2.612 2.612 0 0 0-1.032-1.063 2.797 2.797 0 0 0-1.412-.364c-.507 0-.977.126-1.412.379-.426.243-.77.603-1.033 1.078-.253.466-.38 1.008-.38 1.625 0 .628.127 1.179.38 1.655.263.466.607.825 1.033 1.078.435.243.905.364 1.412.364.516 0 .986-.121 1.412-.364a2.715 2.715 0 0 0 1.032-1.078c.253-.476.38-1.032.38-1.67Zm2.714 0c0-.85.172-1.594.516-2.232a3.747 3.747 0 0 1 1.412-1.503 3.941 3.941 0 0 1 2.02-.532c.728 0 1.361.157 1.898.471.536.314.936.709 1.199 1.184v-1.518h1.397v8.32h-1.397v-1.548c-.273.486-.683.89-1.23 1.214-.536.314-1.164.471-1.883.471a3.77 3.77 0 0 1-2.004-.547 3.83 3.83 0 0 1-1.412-1.533c-.344-.658-.516-1.407-.516-2.247Zm7.045.015c0-.627-.127-1.174-.38-1.64a2.618 2.618 0 0 0-1.032-1.063 2.709 2.709 0 0 0-1.412-.379c-.516 0-.987.121-1.412.364a2.642 2.642 0 0 0-1.017 1.063c-.253.466-.38 1.012-.38 1.64 0 .638.127 1.194.38 1.67.253.466.592.825 1.017 1.078.425.243.896.364 1.412.364.516 0 .987-.121 1.412-.364a2.715 2.715 0 0 0 1.032-1.078c.253-.476.38-1.027.38-1.655Zm7.786-4.297c1.012 0 1.832.309 2.459.926.628.608.942 1.488.942 2.642v4.904h-1.367v-4.706c0-.83-.207-1.463-.622-1.898-.415-.446-.982-.668-1.701-.668-.729 0-1.311.227-1.746.683-.425.455-.638 1.118-.638 1.989v4.6h-1.381v-8.32h1.381v1.184a2.761 2.761 0 0 1 1.109-.987 3.521 3.521 0 0 1 1.564-.349Zm6.371-1.199a.906.906 0 0 1-.668-.274.907.907 0 0 1-.273-.668.91.91 0 0 1 .273-.668.91.91 0 0 1 .668-.273c.253 0 .466.091.638.273a.91.91 0 0 1 .273.668.907.907 0 0 1-.273.668.84.84 0 0 1-.638.274Zm.668 1.351v8.32h-1.381v-8.32h1.381Zm5.301 8.457c-.638 0-1.21-.106-1.716-.319-.506-.222-.906-.526-1.2-.911a2.463 2.463 0 0 1-.485-1.351h1.427c.04.415.233.754.577 1.017.354.263.815.395 1.381.395.527 0 .942-.116 1.245-.349.304-.233.456-.527.456-.881 0-.364-.162-.632-.486-.805-.324-.182-.825-.359-1.503-.531a12.287 12.287 0 0 1-1.518-.486 2.874 2.874 0 0 1-1.002-.744c-.274-.334-.41-.769-.41-1.306 0-.425.126-.814.379-1.169.253-.354.613-.632 1.078-.835.466-.212.997-.319 1.594-.319.921 0 1.665.233 2.232.699.567.465.871 1.103.911 1.913h-1.381a1.421 1.421 0 0 0-.532-1.048c-.314-.263-.739-.394-1.275-.394-.496 0-.891.106-1.184.318-.294.213-.441.491-.441.835 0 .274.086.501.258.684.183.172.405.313.668.425.274.101.648.217 1.124.349a11.11 11.11 0 0 1 1.458.486c.374.152.693.385.956.698.273.314.415.724.425 1.23 0 .456-.126.866-.379 1.23s-.613.653-1.078.865c-.456.203-.982.304-1.579.304Zm9.116-8.609c.628 0 1.195.137 1.701.41.506.263.901.663 1.184 1.2.294.536.441 1.189.441 1.958v4.904h-1.367v-4.706c0-.83-.207-1.463-.622-1.898-.415-.446-.982-.668-1.701-.668-.729 0-1.311.227-1.746.683-.425.455-.638 1.118-.638 1.989v4.6h-1.381v-11.235h1.381v4.099a2.739 2.739 0 0 1 1.124-.987 3.721 3.721 0 0 1 1.624-.349Zm13.183 11.296c-.972-.951-1.731-2.161-2.277-3.628-.537-1.468-.805-3.052-.805-4.753 0-1.741.283-3.365.85-4.873.577-1.519 1.397-2.769 2.46-3.751h1.442v.137a10.235 10.235 0 0 0-2.566 3.841 12.961 12.961 0 0 0-.85 4.646c0 1.569.268 3.067.805 4.495a10.916 10.916 0 0 0 2.384 3.75v.136h-1.443Zm4.724-12.283v3.538h3.856v1.139h-3.856v3.644h4.312v1.138h-5.694v-10.597h5.694v1.138h-4.312Zm9.758 9.566c-.699 0-1.326-.122-1.883-.365-.547-.253-.977-.597-1.291-1.032a2.688 2.688 0 0 1-.485-1.534h1.472c.051.496.253.916.608 1.261.364.334.89.501 1.579.501.658 0 1.174-.162 1.548-.486.385-.334.577-.759.577-1.276 0-.405-.111-.733-.334-.987a2.121 2.121 0 0 0-.835-.576 12.935 12.935 0 0 0-1.351-.426c-.698-.182-1.26-.364-1.685-.546a2.797 2.797 0 0 1-1.078-.85c-.294-.395-.441-.922-.441-1.58 0-.576.147-1.088.441-1.533.293-.445.703-.79 1.23-1.032.536-.243 1.148-.365 1.837-.365.992 0 1.801.248 2.429.744.638.496.997 1.154 1.078 1.974h-1.518c-.051-.405-.264-.759-.638-1.063-.375-.314-.871-.471-1.488-.471-.577 0-1.048.152-1.412.456-.364.293-.547.708-.547 1.245 0 .385.107.698.319.941.223.243.491.43.805.562.324.122.774.263 1.351.425.699.193 1.26.385 1.686.577.425.182.789.471 1.093.866.303.384.455.911.455 1.579 0 .516-.136 1.002-.41 1.457-.273.456-.678.825-1.214 1.109-.537.283-1.169.425-1.898.425Zm5.115 2.717v-.136a10.747 10.747 0 0 0 2.369-3.75c.546-1.428.82-2.926.82-4.495 0-1.609-.289-3.158-.866-4.646a10.073 10.073 0 0 0-2.551-3.841v-.137h1.443c1.063.982 1.877 2.232 2.444 3.751.577 1.508.866 3.132.866 4.873 0 1.701-.274 3.285-.82 4.753-.537 1.467-1.291 2.677-2.262 3.628h-1.443Z" fill="#42445A"/><path d="M555.789 247.394a8.676 8.676 0 0 1 8.676-8.676h136.887a8.676 8.676 0 0 1 8.676 8.676v32.676a8.676 8.676 0 0 1-8.676 8.676H564.465a8.676 8.676 0 0 1-8.676-8.676v-32.676Z" fill="#DEDEE3"/><g clip-path="url(#j)"><g clip-path="url(#k)"><path d="M594.831 256.502h-21.69v14.46h21.69v-14.46Z" fill="#ED2939"/><path d="M587.601 256.502h-14.46v14.46h14.46v-14.46Z" fill="#fff"/><path d="M580.371 256.502h-7.23v14.46h7.23v-14.46Z" fill="#002395"/></g></g><path d="M612.827 258.15v1.123h-4.6v3.568h3.735v1.124h-3.735v4.767h-1.382V258.15h5.982Zm3.051 3.613a2.67 2.67 0 0 1 1.032-1.108c.456-.263 1.007-.395 1.655-.395v1.427h-.364c-1.549 0-2.323.841-2.323 2.521v4.524h-1.382v-8.32h1.382v1.351Zm11.874 2.49c0 .264-.016.542-.046.835h-6.65c.05.82.329 1.463.835 1.929.516.455 1.139.683 1.867.683.598 0 1.094-.137 1.488-.41.405-.283.689-.658.851-1.124h1.488a3.61 3.61 0 0 1-1.337 1.959c-.668.496-1.498.744-2.49.744-.789 0-1.498-.177-2.125-.531a3.794 3.794 0 0 1-1.458-1.503c-.354-.658-.531-1.418-.531-2.278 0-.86.172-1.614.516-2.262a3.587 3.587 0 0 1 1.442-1.488c.628-.354 1.347-.532 2.156-.532.79 0 1.488.173 2.096.517.607.344 1.073.82 1.397 1.427.334.597.501 1.275.501 2.034Zm-1.428-.288c0-.526-.116-.977-.349-1.351a2.2 2.2 0 0 0-.956-.866 2.858 2.858 0 0 0-1.321-.303c-.699 0-1.296.222-1.792.668-.486.445-.764 1.062-.835 1.852h5.253Zm7.305-3.705c1.012 0 1.832.309 2.46.926.627.608.941 1.488.941 2.642v4.904h-1.366v-4.706c0-.83-.208-1.463-.623-1.898-.415-.446-.982-.668-1.7-.668-.729 0-1.311.227-1.746.683-.425.455-.638 1.118-.638 1.989v4.6h-1.382v-8.32h1.382v1.184a2.758 2.758 0 0 1 1.108-.987 3.521 3.521 0 0 1 1.564-.349Zm5.142 4.297c0-.86.172-1.609.516-2.247a3.715 3.715 0 0 1 1.427-1.503c.618-.354 1.321-.532 2.111-.532 1.022 0 1.862.248 2.52.744.668.496 1.109 1.185 1.321 2.065h-1.488a2.118 2.118 0 0 0-.835-1.199c-.405-.294-.911-.44-1.518-.44-.79 0-1.427.273-1.913.819-.486.537-.729 1.301-.729 2.293 0 1.002.243 1.776.729 2.323.486.547 1.123.82 1.913.82.607 0 1.113-.142 1.518-.425.405-.284.683-.688.835-1.215h1.488c-.223.85-.668 1.534-1.336 2.05-.668.506-1.503.759-2.505.759-.79 0-1.493-.177-2.111-.531a3.728 3.728 0 0 1-1.427-1.503c-.344-.648-.516-1.407-.516-2.278Zm13.869-4.297c.627 0 1.194.137 1.7.41.506.263.901.663 1.184 1.2.294.536.441 1.189.441 1.958v4.904h-1.367v-4.706c0-.83-.207-1.463-.622-1.898-.415-.446-.982-.668-1.701-.668-.729 0-1.311.227-1.746.683-.425.455-.638 1.118-.638 1.989v4.6h-1.381v-11.235h1.381v4.099a2.739 2.739 0 0 1 1.124-.987 3.722 3.722 0 0 1 1.625-.349Zm13.182 11.296c-.971-.951-1.731-2.161-2.277-3.628-.537-1.468-.805-3.052-.805-4.753 0-1.741.284-3.365.85-4.873.577-1.519 1.397-2.769 2.46-3.751h1.442v.137a10.235 10.235 0 0 0-2.566 3.841 12.961 12.961 0 0 0-.85 4.646c0 1.569.268 3.067.805 4.495a10.93 10.93 0 0 0 2.384 3.75v.136h-1.443Zm9.324-13.406v1.123h-4.6v3.568h3.735v1.124h-3.735v4.767h-1.382V258.15h5.982Zm7.241 10.582-2.52-4.327h-1.67v4.327h-1.382V258.15h3.416c.8 0 1.473.136 2.019.41.557.273.972.642 1.246 1.108.273.466.409.997.409 1.594 0 .729-.212 1.372-.637 1.929-.415.556-1.043.926-1.883 1.108l2.657 4.433h-1.655Zm-4.19-5.435h2.034c.749 0 1.311-.182 1.685-.547.375-.374.562-.87.562-1.488 0-.627-.187-1.113-.562-1.457-.364-.344-.926-.516-1.685-.516h-2.034v4.008Zm7.415 8.259v-.136a10.747 10.747 0 0 0 2.369-3.75c.546-1.428.819-2.926.819-4.495 0-1.609-.288-3.158-.865-4.646a10.073 10.073 0 0 0-2.551-3.841v-.137h1.443c1.062.982 1.877 2.232 2.444 3.751.577 1.508.866 3.132.866 4.873 0 1.701-.274 3.285-.82 4.753-.537 1.467-1.291 2.677-2.263 3.628h-1.442Z" fill="#42445A"/></g><defs><clipPath id="b"><path fill="#fff" transform="translate(55.38 252.887)" d="M0 0h21.69v21.69H0z"/></clipPath><clipPath id="f"><path fill="#fff" transform="translate(225.634 252.887)" d="M0 0h21.69v21.69H0z"/></clipPath><clipPath id="h"><path fill="#fff" transform="translate(396.887 252.887)" d="M0 0h21.69v21.69H0z"/></clipPath><clipPath id="j"><path fill="#fff" transform="translate(573.141 252.887)" d="M0 0h21.69v21.69H0z"/></clipPath><clipPath id="k"><rect x="573.141" y="256.502" width="21.69" height="14.46" rx="2.169" fill="#fff"/></clipPath><filter id="a" x="0" y="152" width="891.606" height="178.775" filterUnits="userSpaceOnUse" color-interpolation-filters="sRGB"><feFlood flood-opacity="0" result="BackgroundImageFix"/><feColorMatrix in="SourceAlpha" values="0 0 0 0 0 0 0 0 0 0 0 0 0 0 0 0 0 0 127 0" result="hardAlpha"/><feOffset dy="4"/><feGaussianBlur stdDeviation="6"/><feComposite in2="hardAlpha" operator="out"/><feColorMatrix values="0 0 0 0 0 0 0 0 0 0 0 0 0 0 0 0 0 0 0.12 0"/><feBlend in2="BackgroundImageFix" result="effect1_dropShadow_4729_1075"/><feBlend in="SourceGraphic" in2="effect1_dropShadow_4729_1075" result="shape"/></filter><filter id="d" x="56.413" y="257.466" width="7.23" height="5.905" filterUnits="userSpaceOnUse" color-interpolation-filters="sRGB"><feFlood flood-opacity="0" result="BackgroundImageFix"/><feColorMatrix in="SourceAlpha" values="0 0 0 0 0 0 0 0 0 0 0 0 0 0 0 0 0 0 127 0" result="hardAlpha"/><feOffset dy="1.085"/><feColorMatrix values="0 0 0 0 0 0 0 0 0 0 0 0 0 0 0 0 0 0 0.06 0"/><feBlend in2="BackgroundImageFix" result="effect1_dropShadow_4729_1075"/><feBlend in="SourceGraphic" in2="effect1_dropShadow_4729_1075" result="shape"/></filter><linearGradient id="e" x1="56.413" y1="257.466" x2="56.413" y2="262.286" gradientUnits="userSpaceOnUse"><stop stop-color="#fff"/><stop offset="1" stop-color="#F0F0F0"/></linearGradient></defs></svg>